<?xml version="1.0" standalone="no"?>
<!DOCTYPE svg PUBLIC "-//W3C//DTD SVG 1.1//EN" "http://www.w3.org/Graphics/SVG/1.1/DTD/svg11.dtd" >
<svg xmlns="http://www.w3.org/2000/svg" xmlns:xlink="http://www.w3.org/1999/xlink" version="1.1">
<metadata>
Created by FontForge 20170910 at Mon Sep  3 16:56:10 2018
 By Jimmy Wärting
Copyright \\\(c\\\) 2010 by Ryoichi Tsunekawa. All rights reserved.
</metadata>
<defs>
<font id="BebasNeue-Bold" horiz-adv-x="396" >
  <font-face 
    font-family="Bebas Neue"
    font-weight="700"
    font-stretch="normal"
    units-per-em="1000"
    panose-1="0 0 5 0 0 0 0 0 0 0"
    ascent="750"
    descent="-250"
    x-height="700"
    cap-height="700"
    bbox="-137 -179 1000 894"
    underline-thickness="50"
    underline-position="-110"
    stemh="63"
    stemv="70"
    unicode-range="U+0020-F6C3"
  />
<missing-glyph horiz-adv-x="548" 
d="M50 700h448v-700h-448v700zM339 615l-64 -195l-63 195h-86l87 -258l-93 -272h77l69 210l68 -210h88l-93 272l87 258h-77z" />
    <glyph glyph-name=".notdef" horiz-adv-x="548" 
d="M50 700h448v-700h-448v700zM339 615l-64 -195l-63 195h-86l87 -258l-93 -272h77l69 210l68 -210h88l-93 272l87 258h-77z" />
    <glyph glyph-name="A" unicode="A" horiz-adv-x="407" 
d="M396 0h-111l-19 127h-135l-19 -127h-101l112 700h161zM145 222h106l-53 354z" />
    <glyph glyph-name="Aacute" unicode="&#xc1;" horiz-adv-x="407" 
d="M321 848l-102 -111h-74l68 111h108zM396 0h-111l-19 127h-135l-19 -127h-101l112 700h161zM145 222h106l-53 354z" />
    <glyph glyph-name="Abreve" unicode="&#x102;" horiz-adv-x="407" 
d="M250 848h65c0 -70 -38 -115 -113 -115s-110 45 -111 115h65c3 -38 18 -47 46 -47c29 0 45 9 48 47zM396 0h-111l-19 127h-135l-19 -127h-101l112 700h161zM145 222h106l-53 354z" />
    <glyph glyph-name="Acircumflex" unicode="&#xc2;" horiz-adv-x="407" 
d="M65 737l89 111h99l89 -111h-94l-45 55l-44 -55h-94zM396 0h-111l-19 127h-135l-19 -127h-101l112 700h161zM145 222h106l-53 354z" />
    <glyph glyph-name="Adieresis" unicode="&#xc4;" horiz-adv-x="407" 
d="M175 833v-96h-96v96h96zM327 833v-96h-96v96h96zM396 0h-111l-19 127h-135l-19 -127h-101l112 700h161zM145 222h106l-53 354z" />
    <glyph glyph-name="Agrave" unicode="&#xc0;" horiz-adv-x="407" 
d="M196 848l68 -111h-79l-102 111h113zM396 0h-111l-19 127h-135l-19 -127h-101l112 700h161zM145 222h106l-53 354z" />
    <glyph glyph-name="Amacron" unicode="&#x100;" horiz-adv-x="407" 
d="M318 819v-78h-230v78h230zM396 0h-111l-19 127h-135l-19 -127h-101l112 700h161zM145 222h106l-53 354z" />
    <glyph glyph-name="Aogonek" unicode="&#x104;" horiz-adv-x="407" 
d="M396 0h-41c-25 -21 -30 -44 -30 -58c0 -19 17 -28 35 -28c20 0 25 3 36 6v-56c-23 -9 -40 -11 -68 -11c-53 0 -87 21 -87 62c0 27 15 52 47 73l-22 139h-135l-19 -127h-101l112 700h161zM145 222h106l-53 354z" />
    <glyph glyph-name="Aring" unicode="&#xc5;" horiz-adv-x="407" 
d="M123 814c0 45 35 80 80 80s80 -35 80 -80s-35 -80 -80 -80s-80 35 -80 80zM173 814c0 -17 13 -30 30 -30s30 13 30 30s-13 30 -30 30s-30 -13 -30 -30zM396 0h-111l-19 127h-135l-19 -127h-101l112 700h161zM145 222h106l-53 354z" />
    <glyph glyph-name="Atilde" unicode="&#xc3;" horiz-adv-x="407" 
d="M243 813c18 0 31 4 43 29l53 -37c-19 -51 -50 -68 -85 -68c-42 0 -60 25 -90 25c-18 0 -31 -4 -43 -29l-53 37c19 51 50 68 85 68c42 0 60 -25 90 -25zM396 0h-111l-19 127h-135l-19 -127h-101l112 700h161zM145 222h106l-53 354z" />
    <glyph glyph-name="AE" unicode="&#xc6;" horiz-adv-x="580" 
d="M252 127h-111l-32 -127h-105l187 700h361v-100h-190v-195h151v-100h-151v-205h190v-100h-300v127zM252 222v337l-86 -337h86z" />
    <glyph glyph-name="AEacute" unicode="&#x1fc;" horiz-adv-x="580" 
d="M408 848l-102 -111h-74l68 111h108zM252 127h-111l-32 -127h-105l187 700h361v-100h-190v-195h151v-100h-151v-205h190v-100h-300v127zM252 222v337l-86 -337h86z" />
    <glyph glyph-name="B" unicode="B" horiz-adv-x="406" 
d="M206 700c114 0 163 -53 163 -161v-25c0 -72 -22 -118 -71 -141c59 -23 82 -76 82 -150v-57c0 -108 -57 -166 -167 -166h-173v700h166zM150 600v-185h43c41 0 66 18 66 74v39c0 50 -17 72 -56 72h-53zM150 315v-215h63c37 0 57 17 57 69v61c0 65 -21 85 -71 85h-49z" />
    <glyph glyph-name="C" unicode="C" horiz-adv-x="386" 
d="M359 261v-93c0 -112 -56 -176 -164 -176s-164 64 -164 176v364c0 112 56 176 164 176s164 -64 164 -176v-68h-104v75c0 50 -22 69 -57 69s-57 -19 -57 -69v-378c0 -50 22 -68 57 -68s57 18 57 68v100h104z" />
    <glyph glyph-name="Cacute" unicode="&#x106;" horiz-adv-x="386" 
d="M313 848l-102 -111h-74l68 111h108zM359 261v-93c0 -112 -56 -176 -164 -176s-164 64 -164 176v364c0 112 56 176 164 176s164 -64 164 -176v-68h-104v75c0 50 -22 69 -57 69s-57 -19 -57 -69v-378c0 -50 22 -68 57 -68s57 18 57 68v100h104z" />
    <glyph glyph-name="Ccaron" unicode="&#x10c;" horiz-adv-x="386" 
d="M150 848l44 -56l45 56h94l-89 -111h-99l-89 111h94zM359 261v-93c0 -112 -56 -176 -164 -176s-164 64 -164 176v364c0 112 56 176 164 176s164 -64 164 -176v-68h-104v75c0 50 -22 69 -57 69s-57 -19 -57 -69v-378c0 -50 22 -68 57 -68s57 18 57 68v100h104z" />
    <glyph glyph-name="Ccedilla" unicode="&#xc7;" horiz-adv-x="386" 
d="M359 261v-93c0 -104 -49 -167 -142 -175v-32c49 0 74 -12 74 -47c0 -54 -42 -61 -101 -61c-55 0 -96 12 -96 58v10h74v-8c0 -15 11 -20 22 -20c17 0 25 7 25 24c0 19 -12 26 -36 26h-10v51c-91 9 -138 71 -138 174v364c0 112 56 176 164 176s164 -64 164 -176v-68h-104
v75c0 50 -22 69 -57 69s-57 -19 -57 -69v-378c0 -50 22 -68 57 -68s57 18 57 68v100h104z" />
    <glyph glyph-name="Ccircumflex" unicode="&#x108;" horiz-adv-x="386" 
d="M56 737l89 111h99l89 -111h-94l-45 55l-44 -55h-94zM359 261v-93c0 -112 -56 -176 -164 -176s-164 64 -164 176v364c0 112 56 176 164 176s164 -64 164 -176v-68h-104v75c0 50 -22 69 -57 69s-57 -19 -57 -69v-378c0 -50 22 -68 57 -68s57 18 57 68v100h104z" />
    <glyph glyph-name="Cdotaccent" unicode="&#x10a;" horiz-adv-x="386" 
d="M243 833v-96h-96v96h96zM359 261v-93c0 -112 -56 -176 -164 -176s-164 64 -164 176v364c0 112 56 176 164 176s164 -64 164 -176v-68h-104v75c0 50 -22 69 -57 69s-57 -19 -57 -69v-378c0 -50 22 -68 57 -68s57 18 57 68v100h104z" />
    <glyph glyph-name="D" unicode="D" horiz-adv-x="408" 
d="M40 700h174c110 0 164 -61 164 -173v-354c0 -112 -54 -173 -164 -173h-174v700zM150 600v-500h62c35 0 56 18 56 68v364c0 50 -21 68 -56 68h-62z" />
    <glyph glyph-name="Eth" unicode="&#xd0;" horiz-adv-x="408" 
d="M40 305h-36v90h36v305h174c110 0 164 -61 164 -173v-354c0 -112 -54 -173 -164 -173h-174v305zM150 600v-205h68v-90h-68v-205h62c35 0 56 18 56 68v364c0 50 -21 68 -56 68h-62z" />
    <glyph glyph-name="Dcaron" unicode="&#x10e;" horiz-adv-x="408" 
d="M150 848l44 -56l45 56h94l-89 -111h-99l-89 111h94zM40 700h174c110 0 164 -61 164 -173v-354c0 -112 -54 -173 -164 -173h-174v700zM150 600v-500h62c35 0 56 18 56 68v364c0 50 -21 68 -56 68h-62z" />
    <glyph glyph-name="Dcroat" unicode="&#x110;" horiz-adv-x="408" 
d="M40 305h-36v90h36v305h174c110 0 164 -61 164 -173v-354c0 -112 -54 -173 -164 -173h-174v305zM150 600v-205h68v-90h-68v-205h62c35 0 56 18 56 68v364c0 50 -21 68 -56 68h-62z" />
    <glyph glyph-name="E" unicode="E" horiz-adv-x="368" 
d="M150 405h151v-100h-151v-205h190v-100h-300v700h300v-100h-190v-195z" />
    <glyph glyph-name="Eacute" unicode="&#xc9;" horiz-adv-x="368" 
d="M307 848l-102 -111h-74l68 111h108zM150 405h151v-100h-151v-205h190v-100h-300v700h300v-100h-190v-195z" />
    <glyph glyph-name="Ebreve" unicode="&#x114;" horiz-adv-x="368" 
d="M235 848h65c0 -70 -38 -115 -113 -115s-110 45 -111 115h65c3 -38 18 -47 46 -47c29 0 45 9 48 47zM150 405h151v-100h-151v-205h190v-100h-300v700h300v-100h-190v-195z" />
    <glyph glyph-name="Ecaron" unicode="&#x11a;" horiz-adv-x="368" 
d="M143 848l44 -56l45 56h94l-89 -111h-99l-89 111h94zM150 405h151v-100h-151v-205h190v-100h-300v700h300v-100h-190v-195z" />
    <glyph glyph-name="Ecircumflex" unicode="&#xca;" horiz-adv-x="368" 
d="M50 737l89 111h99l89 -111h-94l-45 55l-44 -55h-94zM150 405h151v-100h-151v-205h190v-100h-300v700h300v-100h-190v-195z" />
    <glyph glyph-name="Edieresis" unicode="&#xcb;" horiz-adv-x="368" 
d="M161 833v-96h-96v96h96zM313 833v-96h-96v96h96zM150 405h151v-100h-151v-205h190v-100h-300v700h300v-100h-190v-195z" />
    <glyph glyph-name="Edotaccent" unicode="&#x116;" horiz-adv-x="368" 
d="M236 833v-96h-96v96h96zM150 405h151v-100h-151v-205h190v-100h-300v700h300v-100h-190v-195z" />
    <glyph glyph-name="Egrave" unicode="&#xc8;" horiz-adv-x="368" 
d="M181 848l68 -111h-79l-102 111h113zM150 405h151v-100h-151v-205h190v-100h-300v700h300v-100h-190v-195z" />
    <glyph glyph-name="Emacron" unicode="&#x112;" horiz-adv-x="368" 
d="M303 819v-78h-230v78h230zM150 405h151v-100h-151v-205h190v-100h-300v700h300v-100h-190v-195z" />
    <glyph glyph-name="Eogonek" unicode="&#x118;" horiz-adv-x="368" 
d="M150 405h151v-100h-151v-205h190v-100h-41c-25 -21 -30 -44 -30 -58c0 -19 17 -28 35 -28c20 0 25 3 36 6v-56c-23 -9 -40 -11 -68 -11c-53 0 -87 21 -87 62c0 32 22 62 67 85h-212v700h300v-100h-190v-195z" />
    <glyph glyph-name="F" unicode="F" horiz-adv-x="344" 
d="M150 389h142v-100h-142v-289h-110v700h291v-100h-181v-211z" />
    <glyph glyph-name="G" unicode="G" horiz-adv-x="390" 
d="M205 390h154v-222c0 -112 -56 -176 -164 -176s-164 64 -164 176v364c0 112 56 176 164 176s164 -64 164 -176v-68h-104v75c0 50 -22 69 -57 69s-57 -19 -57 -69v-378c0 -50 22 -68 57 -68s57 18 57 68v129h-50v100z" />
    <glyph glyph-name="Gbreve" unicode="&#x11e;" horiz-adv-x="390" 
d="M241 848h65c0 -70 -38 -115 -113 -115s-110 45 -111 115h65c3 -38 18 -47 46 -47c29 0 45 9 48 47zM205 390h154v-222c0 -112 -56 -176 -164 -176s-164 64 -164 176v364c0 112 56 176 164 176s164 -64 164 -176v-68h-104v75c0 50 -22 69 -57 69s-57 -19 -57 -69v-378
c0 -50 22 -68 57 -68s57 18 57 68v129h-50v100z" />
    <glyph glyph-name="Gcircumflex" unicode="&#x11c;" horiz-adv-x="390" 
d="M56 737l89 111h99l89 -111h-94l-45 55l-44 -55h-94zM205 390h154v-222c0 -112 -56 -176 -164 -176s-164 64 -164 176v364c0 112 56 176 164 176s164 -64 164 -176v-68h-104v75c0 50 -22 69 -57 69s-57 -19 -57 -69v-378c0 -50 22 -68 57 -68s57 18 57 68v129h-50v100z
" />
    <glyph glyph-name="Gdotaccent" unicode="&#x120;" horiz-adv-x="390" 
d="M242 833v-96h-96v96h96zM205 390h154v-222c0 -112 -56 -176 -164 -176s-164 64 -164 176v364c0 112 56 176 164 176s164 -64 164 -176v-68h-104v75c0 50 -22 69 -57 69s-57 -19 -57 -69v-378c0 -50 22 -68 57 -68s57 18 57 68v129h-50v100z" />
    <glyph glyph-name="H" unicode="H" horiz-adv-x="427" 
d="M150 0h-110v700h110v-300h125v300h112v-700h-112v300h-125v-300z" />
    <glyph glyph-name="Hbar" unicode="&#x126;" horiz-adv-x="437" 
d="M155 0h-110v502h-35v82h35v116h110v-116h125v116h112v-116h35v-82h-35v-502h-112v300h-125v-300zM280 400v102h-125v-102h125z" />
    <glyph glyph-name="Hcircumflex" unicode="&#x124;" horiz-adv-x="427" 
d="M75 737l89 111h99l89 -111h-94l-45 55l-44 -55h-94zM150 0h-110v700h110v-300h125v300h112v-700h-112v300h-125v-300z" />
    <glyph glyph-name="I" unicode="I" horiz-adv-x="190" 
d="M40 700h110v-700h-110v700z" />
    <glyph glyph-name="IJ" unicode="&#x132;" horiz-adv-x="446" 
d="M40 700h110v-700h-110v700zM200 100c12 -1 26 -1 38 -1c35 0 63 13 63 67v534h110v-526c0 -140 -75 -176 -158 -176c-20 0 -35 0 -53 2v100z" />
    <glyph glyph-name="Iacute" unicode="&#xcd;" horiz-adv-x="190" 
d="M213 848l-102 -111h-74l68 111h108zM40 700h110v-700h-110v700z" />
    <glyph glyph-name="Ibreve" unicode="&#x12c;" horiz-adv-x="190" 
d="M142 848h65c0 -70 -38 -115 -113 -115s-110 45 -111 115h65c3 -38 18 -47 46 -47c29 0 45 9 48 47zM40 700h110v-700h-110v700z" />
    <glyph glyph-name="Icircumflex" unicode="&#xce;" horiz-adv-x="190" 
d="M-43 737l89 111h99l89 -111h-94l-45 55l-44 -55h-94zM40 700h110v-700h-110v700z" />
    <glyph glyph-name="Idieresis" unicode="&#xcf;" horiz-adv-x="190" 
d="M67 833v-96h-96v96h96zM219 833v-96h-96v96h96zM40 700h110v-700h-110v700z" />
    <glyph glyph-name="Idotaccent" unicode="&#x130;" horiz-adv-x="190" 
d="M143 833v-96h-96v96h96zM40 700h110v-700h-110v700z" />
    <glyph glyph-name="Igrave" unicode="&#xcc;" horiz-adv-x="190" 
d="M88 848l68 -111h-79l-102 111h113zM40 700h110v-700h-110v700z" />
    <glyph glyph-name="Imacron" unicode="&#x12a;" horiz-adv-x="190" 
d="M210 819v-78h-230v78h230zM40 700h110v-700h-110v700z" />
    <glyph glyph-name="Iogonek" unicode="&#x12e;" horiz-adv-x="190" 
d="M40 700h110v-700h-20c-25 -21 -30 -44 -30 -58c0 -19 17 -28 35 -28c20 0 25 3 36 6v-56c-23 -9 -40 -11 -68 -11c-53 0 -87 21 -87 62c0 32 22 62 67 85h-43v700z" />
    <glyph glyph-name="Itilde" unicode="&#x128;" horiz-adv-x="190" 
d="M135 813c18 0 31 4 43 29l53 -37c-19 -51 -50 -68 -85 -68c-42 0 -60 25 -90 25c-18 0 -31 -4 -43 -29l-53 37c19 51 50 68 85 68c42 0 60 -25 90 -25zM40 700h110v-700h-110v700z" />
    <glyph glyph-name="J" unicode="J" horiz-adv-x="256" 
d="M10 100c12 -1 26 -1 38 -1c35 0 63 13 63 67v534h110v-526c0 -140 -75 -176 -158 -176c-20 0 -35 0 -53 2v100z" />
    <glyph glyph-name="Jcircumflex" unicode="&#x134;" horiz-adv-x="256" 
d="M9 737l89 111h99l89 -111h-94l-45 55l-44 -55h-94zM10 100c12 -1 26 -1 38 -1c35 0 63 13 63 67v534h110v-526c0 -140 -75 -176 -158 -176c-20 0 -35 0 -53 2v100z" />
    <glyph glyph-name="K" unicode="K" horiz-adv-x="414" 
d="M184 279l-34 -64v-215h-110v700h110v-305l144 305h110l-153 -312l153 -388h-113z" />
    <glyph glyph-name="L" unicode="L" horiz-adv-x="339" 
d="M40 700h110v-600h181v-100h-291v700z" />
    <glyph glyph-name="Lacute" unicode="&#x139;" horiz-adv-x="339" 
d="M248 848l-102 -111h-74l68 111h108zM40 700h110v-600h181v-100h-291v700z" />
    <glyph glyph-name="Lcaron" unicode="&#x13d;" horiz-adv-x="339" 
d="M40 700h110v-600h181v-100h-291v700zM211 594v106h106v-95l-48 -111h-45l29 100h-42z" />
    <glyph glyph-name="Ldot" unicode="&#x13f;" horiz-adv-x="339" 
d="M40 700h110v-600h181v-100h-291v700zM316 403v-106h-106v106h106z" />
    <glyph glyph-name="Lslash" unicode="&#x141;" horiz-adv-x="348" 
d="M0 195l49 52v453h110v-335l121 130v-100l-121 -130v-165h181v-100h-291v147l-49 -52v100z" />
    <glyph glyph-name="M" unicode="M" horiz-adv-x="541" 
d="M273 203l75 497h153v-700h-104v502l-76 -502h-104l-82 495v-495h-96v700h153z" />
    <glyph glyph-name="N" unicode="N" horiz-adv-x="427" 
d="M138 507v-507h-99v700h138l113 -419v419h98v-700h-113z" />
    <glyph glyph-name="Nacute" unicode="&#x143;" horiz-adv-x="427" 
d="M331 848l-102 -111h-74l68 111h108zM138 507v-507h-99v700h138l113 -419v419h98v-700h-113z" />
    <glyph glyph-name="Ncaron" unicode="&#x147;" horiz-adv-x="427" 
d="M169 848l44 -56l45 56h94l-89 -111h-99l-89 111h94zM138 507v-507h-99v700h138l113 -419v419h98v-700h-113z" />
    <glyph glyph-name="Ntilde" unicode="&#xd1;" horiz-adv-x="427" 
d="M253 813c18 0 31 4 43 29l53 -37c-19 -51 -50 -68 -85 -68c-42 0 -60 25 -90 25c-18 0 -31 -4 -43 -29l-53 37c19 51 50 68 85 68c42 0 60 -25 90 -25zM138 507v-507h-99v700h138l113 -419v419h98v-700h-113z" />
    <glyph glyph-name="O" unicode="O" 
d="M31 532c0 112 59 176 167 176s167 -64 167 -176v-364c0 -112 -59 -176 -167 -176s-167 64 -167 176v364zM141 161c0 -50 22 -69 57 -69s57 19 57 69v378c0 50 -22 69 -57 69s-57 -19 -57 -69v-378z" />
    <glyph glyph-name="Oacute" unicode="&#xd3;" 
d="M316 848l-102 -111h-74l68 111h108zM31 532c0 112 59 176 167 176s167 -64 167 -176v-364c0 -112 -59 -176 -167 -176s-167 64 -167 176v364zM141 161c0 -50 22 -69 57 -69s57 19 57 69v378c0 50 -22 69 -57 69s-57 -19 -57 -69v-378z" />
    <glyph glyph-name="Obreve" unicode="&#x14e;" 
d="M245 848h65c0 -70 -38 -115 -113 -115s-110 45 -111 115h65c3 -38 18 -47 46 -47c29 0 45 9 48 47zM31 532c0 112 59 176 167 176s167 -64 167 -176v-364c0 -112 -59 -176 -167 -176s-167 64 -167 176v364zM141 161c0 -50 22 -69 57 -69s57 19 57 69v378
c0 50 -22 69 -57 69s-57 -19 -57 -69v-378z" />
    <glyph glyph-name="Ocircumflex" unicode="&#xd4;" 
d="M59 737l89 111h99l89 -111h-94l-45 55l-44 -55h-94zM31 532c0 112 59 176 167 176s167 -64 167 -176v-364c0 -112 -59 -176 -167 -176s-167 64 -167 176v364zM141 161c0 -50 22 -69 57 -69s57 19 57 69v378c0 50 -22 69 -57 69s-57 -19 -57 -69v-378z" />
    <glyph glyph-name="Odieresis" unicode="&#xd6;" 
d="M170 833v-96h-96v96h96zM322 833v-96h-96v96h96zM31 532c0 112 59 176 167 176s167 -64 167 -176v-364c0 -112 -59 -176 -167 -176s-167 64 -167 176v364zM141 161c0 -50 22 -69 57 -69s57 19 57 69v378c0 50 -22 69 -57 69s-57 -19 -57 -69v-378z" />
    <glyph glyph-name="Ograve" unicode="&#xd2;" 
d="M190 848l68 -111h-79l-102 111h113zM31 532c0 112 59 176 167 176s167 -64 167 -176v-364c0 -112 -59 -176 -167 -176s-167 64 -167 176v364zM141 161c0 -50 22 -69 57 -69s57 19 57 69v378c0 50 -22 69 -57 69s-57 -19 -57 -69v-378z" />
    <glyph glyph-name="Ohungarumlaut" unicode="&#x150;" 
d="M232 848l-83 -111h-67l50 111h100zM363 848l-84 -111h-66l49 111h101zM31 532c0 112 59 176 167 176s167 -64 167 -176v-364c0 -112 -59 -176 -167 -176s-167 64 -167 176v364zM141 161c0 -50 22 -69 57 -69s57 19 57 69v378c0 50 -22 69 -57 69s-57 -19 -57 -69v-378z
" />
    <glyph glyph-name="Omacron" unicode="&#x14c;" 
d="M313 819v-78h-230v78h230zM31 532c0 112 59 176 167 176s167 -64 167 -176v-364c0 -112 -59 -176 -167 -176s-167 64 -167 176v364zM141 161c0 -50 22 -69 57 -69s57 19 57 69v378c0 50 -22 69 -57 69s-57 -19 -57 -69v-378z" />
    <glyph glyph-name="Oslash" unicode="&#xd8;" 
d="M66 46c-23 30 -35 71 -35 122v364c0 112 59 176 167 176c40 0 74 -9 100 -26l20 55l37 -13l-26 -71c24 -29 36 -70 36 -121v-364c0 -112 -59 -176 -167 -176c-40 0 -74 8 -100 25l-20 -54l-37 13zM141 251l112 309c-5 34 -26 48 -55 48c-35 0 -57 -19 -57 -69v-288z
M198 92c35 0 57 19 57 69v288l-113 -309c6 -35 26 -48 56 -48z" />
    <glyph glyph-name="Oslashacute" unicode="&#x1fe;" 
d="M316 848l-102 -111h-74l68 111h108zM31 532c0 112 59 176 167 176c40 0 74 -9 100 -26l20 55l37 -13l-26 -71c24 -29 36 -70 36 -121v-364c0 -112 -59 -176 -167 -176c-40 0 -74 8 -100 25l-20 -54l-37 13l25 70c-23 30 -35 71 -35 122v364zM141 251l112 309
c-5 34 -26 48 -55 48c-35 0 -57 -19 -57 -69v-288zM198 92c35 0 57 19 57 69v288l-113 -309c6 -35 26 -48 56 -48z" />
    <glyph glyph-name="Otilde" unicode="&#xd5;" 
d="M238 813c18 0 31 4 43 29l53 -37c-19 -51 -50 -68 -85 -68c-42 0 -60 25 -90 25c-18 0 -31 -4 -43 -29l-53 37c19 51 50 68 85 68c42 0 60 -25 90 -25zM31 532c0 112 59 176 167 176s167 -64 167 -176v-364c0 -112 -59 -176 -167 -176s-167 64 -167 176v364zM141 161
c0 -50 22 -69 57 -69s57 19 57 69v378c0 50 -22 69 -57 69s-57 -19 -57 -69v-378z" />
    <glyph glyph-name="OE" unicode="&#x152;" horiz-adv-x="586" 
d="M368 405h151v-100h-151v-205h190v-100h-364c-110 0 -164 61 -164 173v354c0 112 54 173 164 173h364v-100h-190v-195zM258 600h-62c-35 0 -56 -18 -56 -68v-364c0 -50 21 -68 56 -68h62v500z" />
    <glyph glyph-name="P" unicode="P" horiz-adv-x="382" 
d="M202 700c110 0 164 -61 164 -173v-91c0 -112 -54 -173 -164 -173h-52v-263h-110v700h162zM150 600v-237h52c35 0 54 16 54 66v105c0 50 -19 66 -54 66h-52z" />
    <glyph glyph-name="Thorn" unicode="&#xde;" horiz-adv-x="377" 
d="M40 700h110v-80h52c110 0 164 -61 164 -173v-91c0 -112 -54 -173 -164 -173h-52v-183h-110v700zM150 520v-237h52c35 0 54 16 54 66v105c0 50 -19 66 -54 66h-52z" />
    <glyph glyph-name="Q" unicode="Q" 
d="M31 532c0 112 59 176 167 176s167 -64 167 -176v-364c0 -39 -7 -72 -21 -98c5 -13 13 -15 31 -15h10v-98h-15c-49 0 -80 18 -95 48c-22 -8 -48 -13 -77 -13c-108 0 -167 64 -167 176v364zM141 161c0 -50 22 -69 57 -69s57 19 57 69v378c0 50 -22 69 -57 69
s-57 -19 -57 -69v-378z" />
    <glyph glyph-name="R" unicode="R" horiz-adv-x="402" 
d="M270 0c-6 18 -10 29 -10 86v110c0 65 -22 89 -72 89h-38v-285h-110v700h166c114 0 163 -53 163 -161v-55c0 -72 -23 -119 -72 -142c55 -23 73 -76 73 -149v-108c0 -34 1 -59 12 -85h-112zM150 600v-215h43c41 0 66 18 66 74v69c0 50 -17 72 -56 72h-53z" />
    <glyph glyph-name="Racute" unicode="&#x154;" horiz-adv-x="402" 
d="M313 848l-102 -111h-74l68 111h108zM270 0c-6 18 -10 29 -10 86v110c0 65 -22 89 -72 89h-38v-285h-110v700h166c114 0 163 -53 163 -161v-55c0 -72 -23 -119 -72 -142c55 -23 73 -76 73 -149v-108c0 -34 1 -59 12 -85h-112zM150 600v-215h43c41 0 66 18 66 74v69
c0 50 -17 72 -56 72h-53z" />
    <glyph glyph-name="Rcaron" unicode="&#x158;" horiz-adv-x="402" 
d="M150 848l44 -56l45 56h94l-89 -111h-99l-89 111h94zM270 0c-6 18 -10 29 -10 86v110c0 65 -22 89 -72 89h-38v-285h-110v700h166c114 0 163 -53 163 -161v-55c0 -72 -23 -119 -72 -142c55 -23 73 -76 73 -149v-108c0 -34 1 -59 12 -85h-112zM150 600v-215h43
c41 0 66 18 66 74v69c0 50 -17 72 -56 72h-53z" />
    <glyph glyph-name="S" unicode="S" horiz-adv-x="374" 
d="M26 532c0 112 55 176 162 176s162 -64 162 -176v-22h-104v29c0 50 -20 69 -55 69s-55 -19 -55 -69c0 -144 215 -171 215 -371c0 -112 -56 -176 -164 -176s-164 64 -164 176v43h104v-50c0 -50 22 -68 57 -68s57 18 57 68c0 144 -215 171 -215 371z" />
    <glyph glyph-name="Sacute" unicode="&#x15a;" horiz-adv-x="374" 
d="M305 848l-102 -111h-74l68 111h108zM26 532c0 112 55 176 162 176s162 -64 162 -176v-22h-104v29c0 50 -20 69 -55 69s-55 -19 -55 -69c0 -144 215 -171 215 -371c0 -112 -56 -176 -164 -176s-164 64 -164 176v43h104v-50c0 -50 22 -68 57 -68s57 18 57 68
c0 144 -215 171 -215 371z" />
    <glyph glyph-name="Scaron" unicode="&#x160;" horiz-adv-x="374" 
d="M143 848l44 -56l45 56h94l-89 -111h-99l-89 111h94zM26 532c0 112 55 176 162 176s162 -64 162 -176v-22h-104v29c0 50 -20 69 -55 69s-55 -19 -55 -69c0 -144 215 -171 215 -371c0 -112 -56 -176 -164 -176s-164 64 -164 176v43h104v-50c0 -50 22 -68 57 -68
s57 18 57 68c0 144 -215 171 -215 371z" />
    <glyph glyph-name="Scedilla" unicode="&#x15e;" horiz-adv-x="374" 
d="M26 532c0 112 55 176 162 176s162 -64 162 -176v-22h-104v29c0 50 -20 69 -55 69s-55 -19 -55 -69c0 -144 215 -171 215 -371c0 -106 -50 -168 -146 -175v-32c49 0 74 -12 74 -47c0 -54 -42 -61 -101 -61c-55 0 -96 12 -96 58v10h74v-8c0 -15 11 -20 22 -20
c17 0 25 7 25 24c0 19 -12 26 -36 26h-10v51c-89 11 -134 73 -134 174v43h104v-50c0 -50 22 -68 57 -68s57 18 57 68c0 144 -215 171 -215 371z" />
    <glyph glyph-name="Scircumflex" unicode="&#x15c;" horiz-adv-x="374" 
d="M48 737l89 111h99l89 -111h-94l-45 55l-44 -55h-94zM26 532c0 112 55 176 162 176s162 -64 162 -176v-22h-104v29c0 50 -20 69 -55 69s-55 -19 -55 -69c0 -144 215 -171 215 -371c0 -112 -56 -176 -164 -176s-164 64 -164 176v43h104v-50c0 -50 22 -68 57 -68
s57 18 57 68c0 144 -215 171 -215 371z" />
    <glyph glyph-name="T" unicode="T" horiz-adv-x="356" 
d="M8 700h340v-100h-115v-600h-110v600h-115v100z" />
    <glyph glyph-name="Tbar" unicode="&#x166;" horiz-adv-x="356" 
d="M123 487v113h-115v100h340v-100h-115v-113h66v-82h-66v-405h-110v405h-66v82h66z" />
    <glyph glyph-name="Tcaron" unicode="&#x164;" horiz-adv-x="356" 
d="M133 848l44 -56l45 56h94l-89 -111h-99l-89 111h94zM8 700h340v-100h-115v-600h-110v600h-115v100z" />
    <glyph glyph-name="U" unicode="U" horiz-adv-x="398" 
d="M145 700v-540c0 -50 22 -68 57 -68s57 18 57 68v540h104v-533c0 -112 -56 -176 -164 -176s-164 64 -164 176v533h110z" />
    <glyph glyph-name="Uacute" unicode="&#xda;" horiz-adv-x="398" 
d="M318 848l-102 -111h-74l68 111h108zM145 700v-540c0 -50 22 -68 57 -68s57 18 57 68v540h104v-533c0 -112 -56 -176 -164 -176s-164 64 -164 176v533h110z" />
    <glyph glyph-name="Ubreve" unicode="&#x16c;" horiz-adv-x="398" 
d="M247 848h65c0 -70 -38 -115 -113 -115s-110 45 -111 115h65c3 -38 18 -47 46 -47c29 0 45 9 48 47zM145 700v-540c0 -50 22 -68 57 -68s57 18 57 68v540h104v-533c0 -112 -56 -176 -164 -176s-164 64 -164 176v533h110z" />
    <glyph glyph-name="Ucircumflex" unicode="&#xdb;" horiz-adv-x="398" 
d="M62 737l89 111h99l89 -111h-94l-45 55l-44 -55h-94zM145 700v-540c0 -50 22 -68 57 -68s57 18 57 68v540h104v-533c0 -112 -56 -176 -164 -176s-164 64 -164 176v533h110z" />
    <glyph glyph-name="Udieresis" unicode="&#xdc;" horiz-adv-x="398" 
d="M173 833v-96h-96v96h96zM325 833v-96h-96v96h96zM145 700v-540c0 -50 22 -68 57 -68s57 18 57 68v540h104v-533c0 -112 -56 -176 -164 -176s-164 64 -164 176v533h110z" />
    <glyph glyph-name="Ugrave" unicode="&#xd9;" horiz-adv-x="398" 
d="M192 848l68 -111h-79l-102 111h113zM145 700v-540c0 -50 22 -68 57 -68s57 18 57 68v540h104v-533c0 -112 -56 -176 -164 -176s-164 64 -164 176v533h110z" />
    <glyph glyph-name="Uhungarumlaut" unicode="&#x170;" horiz-adv-x="398" 
d="M234 848l-83 -111h-67l50 111h100zM365 848l-84 -111h-66l49 111h101zM145 700v-540c0 -50 22 -68 57 -68s57 18 57 68v540h104v-533c0 -112 -56 -176 -164 -176s-164 64 -164 176v533h110z" />
    <glyph glyph-name="Umacron" unicode="&#x16a;" horiz-adv-x="398" 
d="M315 819v-78h-230v78h230zM145 700v-540c0 -50 22 -68 57 -68s57 18 57 68v540h104v-533c0 -112 -56 -176 -164 -176s-164 64 -164 176v533h110z" />
    <glyph glyph-name="Uogonek" unicode="&#x172;" horiz-adv-x="398" 
d="M145 700v-540c0 -50 22 -68 57 -68s57 18 57 68v540h104v-533c0 -59 -9 -117 -63 -159c-28 -22 -34 -51 -34 -66c0 -19 17 -28 35 -28c20 0 25 3 36 6v-56c-23 -9 -40 -11 -68 -11c-53 0 -87 21 -87 62c0 30 19 57 58 80c-13 -3 -26 -4 -41 -4c-108 0 -164 64 -164 176
v533h110z" />
    <glyph glyph-name="Uring" unicode="&#x16e;" horiz-adv-x="398" 
d="M120 814c0 45 35 80 80 80s80 -35 80 -80s-35 -80 -80 -80s-80 35 -80 80zM170 814c0 -17 13 -30 30 -30s30 13 30 30s-13 30 -30 30s-30 -13 -30 -30zM145 700v-540c0 -50 22 -68 57 -68s57 18 57 68v540h104v-533c0 -112 -56 -176 -164 -176s-164 64 -164 176v533h110z
" />
    <glyph glyph-name="Utilde" unicode="&#x168;" horiz-adv-x="398" 
d="M240 813c18 0 31 4 43 29l53 -37c-19 -51 -50 -68 -85 -68c-42 0 -60 25 -90 25c-18 0 -31 -4 -43 -29l-53 37c19 51 50 68 85 68c42 0 60 -25 90 -25zM145 700v-540c0 -50 22 -68 57 -68s57 18 57 68v540h104v-533c0 -112 -56 -176 -164 -176s-164 64 -164 176v533h110z
" />
    <glyph glyph-name="V" unicode="V" horiz-adv-x="402" 
d="M206 129l84 571h101l-108 -700h-164l-108 700h111z" />
    <glyph glyph-name="W" unicode="W" horiz-adv-x="563" 
d="M284 373l-40 -373h-151l-78 700h107l59 -552l53 552h106l55 -556l57 556h96l-78 -700h-146z" />
    <glyph glyph-name="Wacute" unicode="&#x1e82;" horiz-adv-x="563" 
d="M399 848l-102 -111h-74l68 111h108zM284 373l-40 -373h-151l-78 700h107l59 -552l53 552h106l55 -556l57 556h96l-78 -700h-146z" />
    <glyph glyph-name="Wcircumflex" unicode="&#x174;" horiz-adv-x="563" 
d="M143 737l89 111h99l89 -111h-94l-45 55l-44 -55h-94zM284 373l-40 -373h-151l-78 700h107l59 -552l53 552h106l55 -556l57 556h96l-78 -700h-146z" />
    <glyph glyph-name="Wdieresis" unicode="&#x1e84;" horiz-adv-x="563" 
d="M253 833v-96h-96v96h96zM405 833v-96h-96v96h96zM284 373l-40 -373h-151l-78 700h107l59 -552l53 552h106l55 -556l57 556h96l-78 -700h-146z" />
    <glyph glyph-name="Wgrave" unicode="&#x1e80;" horiz-adv-x="563" 
d="M274 848l68 -111h-79l-102 111h113zM284 373l-40 -373h-151l-78 700h107l59 -552l53 552h106l55 -556l57 556h96l-78 -700h-146z" />
    <glyph glyph-name="X" unicode="X" horiz-adv-x="430" 
d="M407 700l-115 -340l123 -360h-116l-90 277l-91 -277h-103l123 360l-115 340h114l83 -258l85 258h102z" />
    <glyph glyph-name="Y" unicode="Y" 
d="M143 232l-139 468h115l84 -319l84 319h105l-139 -468v-232h-110v232z" />
    <glyph glyph-name="Yacute" unicode="&#xdd;" 
d="M320 848l-102 -111h-74l68 111h108zM143 232l-139 468h115l84 -319l84 319h105l-139 -468v-232h-110v232z" />
    <glyph glyph-name="Ycircumflex" unicode="&#x176;" 
d="M64 737l89 111h99l89 -111h-94l-45 55l-44 -55h-94zM143 232l-139 468h115l84 -319l84 319h105l-139 -468v-232h-110v232z" />
    <glyph glyph-name="Ydieresis" unicode="&#x178;" 
d="M174 833v-96h-96v96h96zM326 833v-96h-96v96h96zM143 232l-139 468h115l84 -319l84 319h105l-139 -468v-232h-110v232z" />
    <glyph glyph-name="Ygrave" unicode="&#x1ef2;" 
d="M195 848l68 -111h-79l-102 111h113zM143 232l-139 468h115l84 -319l84 319h105l-139 -468v-232h-110v232z" />
    <glyph glyph-name="Z" unicode="Z" horiz-adv-x="370" 
d="M345 700v-98l-209 -502h209v-100h-322v98l209 502h-199v100h312z" />
    <glyph glyph-name="Zacute" unicode="&#x179;" horiz-adv-x="370" 
d="M304 848l-102 -111h-74l68 111h108zM345 700v-98l-209 -502h209v-100h-322v98l209 502h-199v100h312z" />
    <glyph glyph-name="Zcaron" unicode="&#x17d;" horiz-adv-x="370" 
d="M142 848l44 -56l45 56h94l-89 -111h-99l-89 111h94zM345 700v-98l-209 -502h209v-100h-322v98l209 502h-199v100h312z" />
    <glyph glyph-name="Zdotaccent" unicode="&#x17b;" horiz-adv-x="370" 
d="M234 833v-96h-96v96h96zM345 700v-98l-209 -502h209v-100h-322v98l209 502h-199v100h312z" />
    <glyph glyph-name="uni0122" unicode="&#x122;" horiz-adv-x="390" 
d="M205 390h154v-222c0 -112 -56 -176 -164 -176s-164 64 -164 176v364c0 112 56 176 164 176s164 -64 164 -176v-68h-104v75c0 50 -22 69 -57 69s-57 -19 -57 -69v-378c0 -50 22 -68 57 -68s57 18 57 68v129h-50v100zM149 -125v92h92v-82l-43 -64h-39l26 54h-36z" />
    <glyph glyph-name="uni0136" unicode="&#x136;" horiz-adv-x="414" 
d="M184 279l-34 -64v-215h-110v700h110v-305l144 305h110l-153 -312l153 -388h-113zM169 -125v92h92v-82l-43 -64h-39l26 54h-36z" />
    <glyph glyph-name="uni013B" unicode="&#x13b;" horiz-adv-x="339" 
d="M40 700h110v-600h181v-100h-291v700zM140 -125v92h92v-82l-43 -64h-39l26 54h-36z" />
    <glyph glyph-name="uni0145" unicode="&#x145;" horiz-adv-x="427" 
d="M138 507v-507h-99v700h138l113 -419v419h98v-700h-113zM167 -125v92h92v-82l-43 -64h-39l26 54h-36z" />
    <glyph glyph-name="uni0156" unicode="&#x156;" horiz-adv-x="402" 
d="M270 0c-6 18 -10 29 -10 86v110c0 65 -22 89 -72 89h-38v-285h-110v700h166c114 0 163 -53 163 -161v-55c0 -72 -23 -119 -72 -142c55 -23 73 -76 73 -149v-108c0 -34 1 -59 12 -85h-112zM150 600v-215h43c41 0 66 18 66 74v69c0 50 -17 72 -56 72h-53zM157 -125v92h92
v-82l-43 -64h-39l26 54h-36z" />
    <glyph glyph-name="uni0162" unicode="&#x162;" horiz-adv-x="356" 
d="M88 -99h64v-10c0 -14 11 -18 21 -18c17 0 26 9 26 26c0 19 -12 28 -36 28h-11v73h-29v600h-115v100h340v-100h-115v-600h-31v-39c39 0 63 -22 63 -57c0 -60 -42 -82 -91 -82c-45 0 -86 23 -86 69v10z" />
    <glyph glyph-name="uni0218" unicode="&#x218;" horiz-adv-x="374" 
d="M26 532c0 112 55 176 162 176s162 -64 162 -176v-22h-104v29c0 50 -20 69 -55 69s-55 -19 -55 -69c0 -144 215 -171 215 -371c0 -112 -56 -176 -164 -176s-164 64 -164 176v43h104v-50c0 -50 22 -68 57 -68s57 18 57 68c0 144 -215 171 -215 371zM138 -125v92h92v-82
l-43 -64h-39l26 54h-36z" />
    <glyph glyph-name="uni021A" unicode="&#x21a;" horiz-adv-x="356" 
d="M8 700h340v-100h-115v-600h-110v600h-115v100zM132 -125v92h92v-82l-43 -64h-39l26 54h-36z" />
    <glyph glyph-name="uni1E02" unicode="&#x1e02;" horiz-adv-x="406" 
d="M234 833v-96h-96v96h96zM206 700c114 0 163 -53 163 -161v-25c0 -72 -22 -118 -71 -141c59 -23 82 -76 82 -150v-57c0 -108 -57 -166 -167 -166h-173v700h166zM150 600v-185h43c41 0 66 18 66 74v39c0 50 -17 72 -56 72h-53zM150 315v-215h63c37 0 57 17 57 69v61
c0 65 -21 85 -71 85h-49z" />
    <glyph glyph-name="uni1E0A" unicode="&#x1e0a;" horiz-adv-x="408" 
d="M242 833v-96h-96v96h96zM40 700h174c110 0 164 -61 164 -173v-354c0 -112 -54 -173 -164 -173h-174v700zM150 600v-500h62c35 0 56 18 56 68v364c0 50 -21 68 -56 68h-62z" />
    <glyph glyph-name="uni1E1E" unicode="&#x1e1e;" horiz-adv-x="344" 
d="M230 833v-96h-96v96h96zM150 389h142v-100h-142v-289h-110v700h291v-100h-181v-211z" />
    <glyph glyph-name="uni1E40" unicode="&#x1e40;" horiz-adv-x="541" 
d="M318 833v-96h-96v96h96zM273 203l75 497h153v-700h-104v502l-76 -502h-104l-82 495v-495h-96v700h153z" />
    <glyph glyph-name="uni1E56" unicode="&#x1e56;" horiz-adv-x="377" 
d="M238 833v-96h-96v96h96zM202 700c110 0 164 -61 164 -173v-91c0 -112 -54 -173 -164 -173h-52v-263h-110v700h162zM150 600v-237h52c35 0 54 16 54 66v105c0 50 -19 66 -54 66h-52z" />
    <glyph glyph-name="uni1E60" unicode="&#x1e60;" horiz-adv-x="374" 
d="M235 833v-96h-96v96h96zM26 532c0 112 55 176 162 176s162 -64 162 -176v-22h-104v29c0 50 -20 69 -55 69s-55 -19 -55 -69c0 -144 215 -171 215 -371c0 -112 -56 -176 -164 -176s-164 64 -164 176v43h104v-50c0 -50 22 -68 57 -68s57 18 57 68c0 144 -215 171 -215 371z
" />
    <glyph glyph-name="uni1E6A" unicode="&#x1e6a;" horiz-adv-x="356" 
d="M226 833v-96h-96v96h96zM8 700h340v-100h-115v-600h-110v600h-115v100z" />
    <glyph glyph-name="a" unicode="a" horiz-adv-x="407" 
d="M396 0h-111l-19 127h-135l-19 -127h-101l112 700h161zM145 222h106l-53 354z" />
    <glyph glyph-name="aacute" unicode="&#xe1;" horiz-adv-x="407" 
d="M321 848l-102 -111h-74l68 111h108zM396 0h-111l-19 127h-135l-19 -127h-101l112 700h161zM145 222h106l-53 354z" />
    <glyph glyph-name="abreve" unicode="&#x103;" horiz-adv-x="407" 
d="M250 848h65c0 -70 -38 -115 -113 -115s-110 45 -111 115h65c3 -38 18 -47 46 -47c29 0 45 9 48 47zM396 0h-111l-19 127h-135l-19 -127h-101l112 700h161zM145 222h106l-53 354z" />
    <glyph glyph-name="acircumflex" unicode="&#xe2;" horiz-adv-x="407" 
d="M65 737l89 111h99l89 -111h-94l-45 55l-44 -55h-94zM396 0h-111l-19 127h-135l-19 -127h-101l112 700h161zM145 222h106l-53 354z" />
    <glyph glyph-name="adieresis" unicode="&#xe4;" horiz-adv-x="407" 
d="M175 833v-96h-96v96h96zM327 833v-96h-96v96h96zM396 0h-111l-19 127h-135l-19 -127h-101l112 700h161zM145 222h106l-53 354z" />
    <glyph glyph-name="agrave" unicode="&#xe0;" horiz-adv-x="407" 
d="M196 848l68 -111h-79l-102 111h113zM396 0h-111l-19 127h-135l-19 -127h-101l112 700h161zM145 222h106l-53 354z" />
    <glyph glyph-name="amacron" unicode="&#x101;" horiz-adv-x="407" 
d="M318 819v-78h-230v78h230zM396 0h-111l-19 127h-135l-19 -127h-101l112 700h161zM145 222h106l-53 354z" />
    <glyph glyph-name="aogonek" unicode="&#x105;" horiz-adv-x="407" 
d="M396 0h-41c-25 -21 -30 -44 -30 -58c0 -19 17 -28 35 -28c20 0 25 3 36 6v-56c-23 -9 -40 -11 -68 -11c-53 0 -87 21 -87 62c0 27 15 52 47 73l-22 139h-135l-19 -127h-101l112 700h161zM145 222h106l-53 354z" />
    <glyph glyph-name="aring" unicode="&#xe5;" horiz-adv-x="407" 
d="M123 814c0 45 35 80 80 80s80 -35 80 -80s-35 -80 -80 -80s-80 35 -80 80zM173 814c0 -17 13 -30 30 -30s30 13 30 30s-13 30 -30 30s-30 -13 -30 -30zM396 0h-111l-19 127h-135l-19 -127h-101l112 700h161zM145 222h106l-53 354z" />
    <glyph glyph-name="atilde" unicode="&#xe3;" horiz-adv-x="407" 
d="M243 813c18 0 31 4 43 29l53 -37c-19 -51 -50 -68 -85 -68c-42 0 -60 25 -90 25c-18 0 -31 -4 -43 -29l-53 37c19 51 50 68 85 68c42 0 60 -25 90 -25zM396 0h-111l-19 127h-135l-19 -127h-101l112 700h161zM145 222h106l-53 354z" />
    <glyph glyph-name="ae" unicode="&#xe6;" horiz-adv-x="580" 
d="M362 405h151v-100h-151v-205h190v-100h-300v127h-111l-32 -127h-105l187 700h361v-100h-190v-195zM252 222v337l-86 -337h86z" />
    <glyph glyph-name="aeacute" unicode="&#x1fd;" horiz-adv-x="580" 
d="M408 848l-102 -111h-74l68 111h108zM252 127h-111l-32 -127h-105l187 700h361v-100h-190v-195h151v-100h-151v-205h190v-100h-300v127zM252 222v337l-86 -337h86z" />
    <glyph glyph-name="b" unicode="b" horiz-adv-x="406" 
d="M206 700c114 0 163 -53 163 -161v-25c0 -72 -22 -118 -71 -141c59 -23 82 -76 82 -150v-57c0 -108 -57 -166 -167 -166h-173v700h166zM150 600v-185h43c41 0 66 18 66 74v39c0 50 -17 72 -56 72h-53zM150 315v-215h63c37 0 57 17 57 69v61c0 65 -21 85 -71 85h-49z" />
    <glyph glyph-name="c" unicode="c" horiz-adv-x="386" 
d="M359 261v-93c0 -112 -56 -176 -164 -176s-164 64 -164 176v364c0 112 56 176 164 176s164 -64 164 -176v-68h-104v75c0 50 -22 69 -57 69s-57 -19 -57 -69v-378c0 -50 22 -68 57 -68s57 18 57 68v100h104z" />
    <glyph glyph-name="cacute" unicode="&#x107;" horiz-adv-x="386" 
d="M313 848l-102 -111h-74l68 111h108zM359 261v-93c0 -112 -56 -176 -164 -176s-164 64 -164 176v364c0 112 56 176 164 176s164 -64 164 -176v-68h-104v75c0 50 -22 69 -57 69s-57 -19 -57 -69v-378c0 -50 22 -68 57 -68s57 18 57 68v100h104z" />
    <glyph glyph-name="ccaron" unicode="&#x10d;" horiz-adv-x="386" 
d="M150 848l44 -56l45 56h94l-89 -111h-99l-89 111h94zM359 261v-93c0 -112 -56 -176 -164 -176s-164 64 -164 176v364c0 112 56 176 164 176s164 -64 164 -176v-68h-104v75c0 50 -22 69 -57 69s-57 -19 -57 -69v-378c0 -50 22 -68 57 -68s57 18 57 68v100h104z" />
    <glyph glyph-name="ccedilla" unicode="&#xe7;" horiz-adv-x="386" 
d="M359 261v-93c0 -104 -49 -167 -142 -175v-32c49 0 74 -12 74 -47c0 -54 -42 -61 -101 -61c-55 0 -96 12 -96 58v10h74v-8c0 -15 11 -20 22 -20c17 0 25 7 25 24c0 19 -12 26 -36 26h-10v51c-91 9 -138 71 -138 174v364c0 112 56 176 164 176s164 -64 164 -176v-68h-104
v75c0 50 -22 69 -57 69s-57 -19 -57 -69v-378c0 -50 22 -68 57 -68s57 18 57 68v100h104z" />
    <glyph glyph-name="ccircumflex" unicode="&#x109;" horiz-adv-x="386" 
d="M56 737l89 111h99l89 -111h-94l-45 55l-44 -55h-94zM359 261v-93c0 -112 -56 -176 -164 -176s-164 64 -164 176v364c0 112 56 176 164 176s164 -64 164 -176v-68h-104v75c0 50 -22 69 -57 69s-57 -19 -57 -69v-378c0 -50 22 -68 57 -68s57 18 57 68v100h104z" />
    <glyph glyph-name="cdotaccent" unicode="&#x10b;" horiz-adv-x="386" 
d="M243 833v-96h-96v96h96zM359 261v-93c0 -112 -56 -176 -164 -176s-164 64 -164 176v364c0 112 56 176 164 176s164 -64 164 -176v-68h-104v75c0 50 -22 69 -57 69s-57 -19 -57 -69v-378c0 -50 22 -68 57 -68s57 18 57 68v100h104z" />
    <glyph glyph-name="d" unicode="d" horiz-adv-x="408" 
d="M40 700h174c110 0 164 -61 164 -173v-354c0 -112 -54 -173 -164 -173h-174v700zM150 600v-500h62c35 0 56 18 56 68v364c0 50 -21 68 -56 68h-62z" />
    <glyph glyph-name="eth" unicode="&#xf0;" horiz-adv-x="408" 
d="M40 305h-36v90h36v305h174c110 0 164 -61 164 -173v-354c0 -112 -54 -173 -164 -173h-174v305zM150 600v-205h68v-90h-68v-205h62c35 0 56 18 56 68v364c0 50 -21 68 -56 68h-62z" />
    <glyph glyph-name="dcaron" unicode="&#x10f;" horiz-adv-x="408" 
d="M150 848l44 -56l45 56h94l-89 -111h-99l-89 111h94zM40 700h174c110 0 164 -61 164 -173v-354c0 -112 -54 -173 -164 -173h-174v700zM150 600v-500h62c35 0 56 18 56 68v364c0 50 -21 68 -56 68h-62z" />
    <glyph glyph-name="dcroat" unicode="&#x111;" horiz-adv-x="408" 
d="M40 305h-36v90h36v305h174c110 0 164 -61 164 -173v-354c0 -112 -54 -173 -164 -173h-174v305zM150 600v-205h68v-90h-68v-205h62c35 0 56 18 56 68v364c0 50 -21 68 -56 68h-62z" />
    <glyph glyph-name="e" unicode="e" horiz-adv-x="368" 
d="M150 405h151v-100h-151v-205h190v-100h-300v700h300v-100h-190v-195z" />
    <glyph glyph-name="eacute" unicode="&#xe9;" horiz-adv-x="368" 
d="M307 848l-102 -111h-74l68 111h108zM150 405h151v-100h-151v-205h190v-100h-300v700h300v-100h-190v-195z" />
    <glyph glyph-name="ebreve" unicode="&#x115;" horiz-adv-x="368" 
d="M235 848h65c0 -70 -38 -115 -113 -115s-110 45 -111 115h65c3 -38 18 -47 46 -47c29 0 45 9 48 47zM150 405h151v-100h-151v-205h190v-100h-300v700h300v-100h-190v-195z" />
    <glyph glyph-name="ecaron" unicode="&#x11b;" horiz-adv-x="368" 
d="M143 848l44 -56l45 56h94l-89 -111h-99l-89 111h94zM150 405h151v-100h-151v-205h190v-100h-300v700h300v-100h-190v-195z" />
    <glyph glyph-name="ecircumflex" unicode="&#xea;" horiz-adv-x="368" 
d="M50 737l89 111h99l89 -111h-94l-45 55l-44 -55h-94zM150 405h151v-100h-151v-205h190v-100h-300v700h300v-100h-190v-195z" />
    <glyph glyph-name="edieresis" unicode="&#xeb;" horiz-adv-x="368" 
d="M161 833v-96h-96v96h96zM313 833v-96h-96v96h96zM150 405h151v-100h-151v-205h190v-100h-300v700h300v-100h-190v-195z" />
    <glyph glyph-name="edotaccent" unicode="&#x117;" horiz-adv-x="368" 
d="M236 833v-96h-96v96h96zM150 405h151v-100h-151v-205h190v-100h-300v700h300v-100h-190v-195z" />
    <glyph glyph-name="egrave" unicode="&#xe8;" horiz-adv-x="368" 
d="M181 848l68 -111h-79l-102 111h113zM150 405h151v-100h-151v-205h190v-100h-300v700h300v-100h-190v-195z" />
    <glyph glyph-name="emacron" unicode="&#x113;" horiz-adv-x="368" 
d="M303 819v-78h-230v78h230zM150 405h151v-100h-151v-205h190v-100h-300v700h300v-100h-190v-195z" />
    <glyph glyph-name="eogonek" unicode="&#x119;" horiz-adv-x="368" 
d="M150 405h151v-100h-151v-205h190v-100h-41c-25 -21 -30 -44 -30 -58c0 -19 17 -28 35 -28c20 0 25 3 36 6v-56c-23 -9 -40 -11 -68 -11c-53 0 -87 21 -87 62c0 32 22 62 67 85h-212v700h300v-100h-190v-195z" />
    <glyph glyph-name="f" unicode="f" horiz-adv-x="344" 
d="M150 389h142v-100h-142v-289h-110v700h291v-100h-181v-211z" />
    <glyph glyph-name="g" unicode="g" horiz-adv-x="390" 
d="M205 390h154v-222c0 -112 -56 -176 -164 -176s-164 64 -164 176v364c0 112 56 176 164 176s164 -64 164 -176v-68h-104v75c0 50 -22 69 -57 69s-57 -19 -57 -69v-378c0 -50 22 -68 57 -68s57 18 57 68v129h-50v100z" />
    <glyph glyph-name="gbreve" unicode="&#x11f;" horiz-adv-x="390" 
d="M241 848h65c0 -70 -38 -115 -113 -115s-110 45 -111 115h65c3 -38 18 -47 46 -47c29 0 45 9 48 47zM205 390h154v-222c0 -112 -56 -176 -164 -176s-164 64 -164 176v364c0 112 56 176 164 176s164 -64 164 -176v-68h-104v75c0 50 -22 69 -57 69s-57 -19 -57 -69v-378
c0 -50 22 -68 57 -68s57 18 57 68v129h-50v100z" />
    <glyph glyph-name="gcircumflex" unicode="&#x11d;" horiz-adv-x="390" 
d="M56 737l89 111h99l89 -111h-94l-45 55l-44 -55h-94zM205 390h154v-222c0 -112 -56 -176 -164 -176s-164 64 -164 176v364c0 112 56 176 164 176s164 -64 164 -176v-68h-104v75c0 50 -22 69 -57 69s-57 -19 -57 -69v-378c0 -50 22 -68 57 -68s57 18 57 68v129h-50v100z
" />
    <glyph glyph-name="gdotaccent" unicode="&#x121;" horiz-adv-x="390" 
d="M242 833v-96h-96v96h96zM205 390h154v-222c0 -112 -56 -176 -164 -176s-164 64 -164 176v364c0 112 56 176 164 176s164 -64 164 -176v-68h-104v75c0 50 -22 69 -57 69s-57 -19 -57 -69v-378c0 -50 22 -68 57 -68s57 18 57 68v129h-50v100z" />
    <glyph glyph-name="h" unicode="h" horiz-adv-x="427" 
d="M150 0h-110v700h110v-300h125v300h112v-700h-112v300h-125v-300z" />
    <glyph glyph-name="hbar" unicode="&#x127;" horiz-adv-x="437" 
d="M155 0h-110v502h-35v82h35v116h110v-116h125v116h112v-116h35v-82h-35v-502h-112v300h-125v-300zM280 400v102h-125v-102h125z" />
    <glyph glyph-name="hcircumflex" unicode="&#x125;" horiz-adv-x="427" 
d="M75 737l89 111h99l89 -111h-94l-45 55l-44 -55h-94zM150 0h-110v700h110v-300h125v300h112v-700h-112v300h-125v-300z" />
    <glyph glyph-name="i" unicode="i" horiz-adv-x="190" 
d="M40 700h110v-700h-110v700z" />
    <glyph glyph-name="dotlessi" unicode="&#x131;" horiz-adv-x="190" 
d="M40 700h110v-700h-110v700z" />
    <glyph glyph-name="iacute" unicode="&#xed;" horiz-adv-x="190" 
d="M213 848l-102 -111h-74l68 111h108zM40 700h110v-700h-110v700z" />
    <glyph glyph-name="ibreve" unicode="&#x12d;" horiz-adv-x="190" 
d="M142 848h65c0 -70 -38 -115 -113 -115s-110 45 -111 115h65c3 -38 18 -47 46 -47c29 0 45 9 48 47zM40 700h110v-700h-110v700z" />
    <glyph glyph-name="icircumflex" unicode="&#xee;" horiz-adv-x="190" 
d="M-43 737l89 111h99l89 -111h-94l-45 55l-44 -55h-94zM40 700h110v-700h-110v700z" />
    <glyph glyph-name="idieresis" unicode="&#xef;" horiz-adv-x="190" 
d="M67 833v-96h-96v96h96zM219 833v-96h-96v96h96zM40 700h110v-700h-110v700z" />
    <glyph glyph-name="igrave" unicode="&#xec;" horiz-adv-x="190" 
d="M88 848l68 -111h-79l-102 111h113zM40 700h110v-700h-110v700z" />
    <glyph glyph-name="ij" unicode="&#x133;" horiz-adv-x="446" 
d="M40 700h110v-700h-110v700zM200 100c12 -1 26 -1 38 -1c35 0 63 13 63 67v534h110v-526c0 -140 -75 -176 -158 -176c-20 0 -35 0 -53 2v100z" />
    <glyph glyph-name="imacron" unicode="&#x12b;" horiz-adv-x="190" 
d="M210 819v-78h-230v78h230zM40 700h110v-700h-110v700z" />
    <glyph glyph-name="iogonek" unicode="&#x12f;" horiz-adv-x="190" 
d="M40 700h110v-700h-20c-25 -21 -30 -44 -30 -58c0 -19 17 -28 35 -28c20 0 25 3 36 6v-56c-23 -9 -40 -11 -68 -11c-53 0 -87 21 -87 62c0 32 22 62 67 85h-43v700z" />
    <glyph glyph-name="itilde" unicode="&#x129;" horiz-adv-x="190" 
d="M135 813c18 0 31 4 43 29l53 -37c-19 -51 -50 -68 -85 -68c-42 0 -60 25 -90 25c-18 0 -31 -4 -43 -29l-53 37c19 51 50 68 85 68c42 0 60 -25 90 -25zM40 700h110v-700h-110v700z" />
    <glyph glyph-name="j" unicode="j" horiz-adv-x="256" 
d="M10 100c12 -1 26 -1 38 -1c35 0 63 13 63 67v534h110v-526c0 -140 -75 -176 -158 -176c-20 0 -35 0 -53 2v100z" />
    <glyph glyph-name="uni0237" unicode="&#x237;" horiz-adv-x="256" 
d="M10 100c12 -1 26 -1 38 -1c35 0 63 13 63 67v534h110v-526c0 -140 -75 -176 -158 -176c-20 0 -35 0 -53 2v100z" />
    <glyph glyph-name="jcircumflex" unicode="&#x135;" horiz-adv-x="256" 
d="M9 737l89 111h99l89 -111h-94l-45 55l-44 -55h-94zM10 100c12 -1 26 -1 38 -1c35 0 63 13 63 67v534h110v-526c0 -140 -75 -176 -158 -176c-20 0 -35 0 -53 2v100z" />
    <glyph glyph-name="k" unicode="k" horiz-adv-x="414" 
d="M184 279l-34 -64v-215h-110v700h110v-305l144 305h110l-153 -312l153 -388h-113z" />
    <glyph glyph-name="kgreenlandic" unicode="&#x138;" horiz-adv-x="414" 
d="M184 279l-34 -64v-215h-110v700h110v-305l144 305h110l-153 -312l153 -388h-113z" />
    <glyph glyph-name="l" unicode="l" horiz-adv-x="339" 
d="M40 700h110v-600h181v-100h-291v700z" />
    <glyph glyph-name="lacute" unicode="&#x13a;" horiz-adv-x="339" 
d="M248 848l-102 -111h-74l68 111h108zM40 700h110v-600h181v-100h-291v700z" />
    <glyph glyph-name="lcaron" unicode="&#x13e;" horiz-adv-x="339" 
d="M40 700h110v-600h181v-100h-291v700zM211 594v106h106v-95l-48 -111h-45l29 100h-42z" />
    <glyph glyph-name="ldot" unicode="&#x140;" horiz-adv-x="339" 
d="M40 700h110v-600h181v-100h-291v700zM316 403v-106h-106v106h106z" />
    <glyph glyph-name="lslash" unicode="&#x142;" horiz-adv-x="348" 
d="M0 195l49 52v453h110v-335l121 130v-100l-121 -130v-165h181v-100h-291v147l-49 -52v100z" />
    <glyph glyph-name="m" unicode="m" horiz-adv-x="541" 
d="M273 203l75 497h153v-700h-104v502l-76 -502h-104l-82 495v-495h-96v700h153z" />
    <glyph glyph-name="n" unicode="n" horiz-adv-x="427" 
d="M138 507v-507h-99v700h138l113 -419v419h98v-700h-113z" />
    <glyph glyph-name="nacute" unicode="&#x144;" horiz-adv-x="427" 
d="M331 848l-102 -111h-74l68 111h108zM138 507v-507h-99v700h138l113 -419v419h98v-700h-113z" />
    <glyph glyph-name="napostrophe" unicode="&#x149;" horiz-adv-x="543" 
d="M5 594v106h106v-95l-48 -111h-45l29 100h-42zM254 507v-507h-99v700h138l113 -419v419h98v-700h-113z" />
    <glyph glyph-name="ncaron" unicode="&#x148;" horiz-adv-x="427" 
d="M169 848l44 -56l45 56h94l-89 -111h-99l-89 111h94zM138 507v-507h-99v700h138l113 -419v419h98v-700h-113z" />
    <glyph glyph-name="ntilde" unicode="&#xf1;" horiz-adv-x="427" 
d="M253 813c18 0 31 4 43 29l53 -37c-19 -51 -50 -68 -85 -68c-42 0 -60 25 -90 25c-18 0 -31 -4 -43 -29l-53 37c19 51 50 68 85 68c42 0 60 -25 90 -25zM138 507v-507h-99v700h138l113 -419v419h98v-700h-113z" />
    <glyph glyph-name="o" unicode="o" 
d="M31 532c0 112 59 176 167 176s167 -64 167 -176v-364c0 -112 -59 -176 -167 -176s-167 64 -167 176v364zM141 161c0 -50 22 -69 57 -69s57 19 57 69v378c0 50 -22 69 -57 69s-57 -19 -57 -69v-378z" />
    <glyph glyph-name="oacute" unicode="&#xf3;" 
d="M316 848l-102 -111h-74l68 111h108zM31 532c0 112 59 176 167 176s167 -64 167 -176v-364c0 -112 -59 -176 -167 -176s-167 64 -167 176v364zM141 161c0 -50 22 -69 57 -69s57 19 57 69v378c0 50 -22 69 -57 69s-57 -19 -57 -69v-378z" />
    <glyph glyph-name="obreve" unicode="&#x14f;" 
d="M245 848h65c0 -70 -38 -115 -113 -115s-110 45 -111 115h65c3 -38 18 -47 46 -47c29 0 45 9 48 47zM31 532c0 112 59 176 167 176s167 -64 167 -176v-364c0 -112 -59 -176 -167 -176s-167 64 -167 176v364zM141 161c0 -50 22 -69 57 -69s57 19 57 69v378
c0 50 -22 69 -57 69s-57 -19 -57 -69v-378z" />
    <glyph glyph-name="ocircumflex" unicode="&#xf4;" 
d="M59 737l89 111h99l89 -111h-94l-45 55l-44 -55h-94zM31 532c0 112 59 176 167 176s167 -64 167 -176v-364c0 -112 -59 -176 -167 -176s-167 64 -167 176v364zM141 161c0 -50 22 -69 57 -69s57 19 57 69v378c0 50 -22 69 -57 69s-57 -19 -57 -69v-378z" />
    <glyph glyph-name="odieresis" unicode="&#xf6;" 
d="M170 833v-96h-96v96h96zM322 833v-96h-96v96h96zM31 532c0 112 59 176 167 176s167 -64 167 -176v-364c0 -112 -59 -176 -167 -176s-167 64 -167 176v364zM141 161c0 -50 22 -69 57 -69s57 19 57 69v378c0 50 -22 69 -57 69s-57 -19 -57 -69v-378z" />
    <glyph glyph-name="ograve" unicode="&#xf2;" 
d="M190 848l68 -111h-79l-102 111h113zM31 532c0 112 59 176 167 176s167 -64 167 -176v-364c0 -112 -59 -176 -167 -176s-167 64 -167 176v364zM141 161c0 -50 22 -69 57 -69s57 19 57 69v378c0 50 -22 69 -57 69s-57 -19 -57 -69v-378z" />
    <glyph glyph-name="ohungarumlaut" unicode="&#x151;" 
d="M232 848l-83 -111h-67l50 111h100zM363 848l-84 -111h-66l49 111h101zM31 532c0 112 59 176 167 176s167 -64 167 -176v-364c0 -112 -59 -176 -167 -176s-167 64 -167 176v364zM141 161c0 -50 22 -69 57 -69s57 19 57 69v378c0 50 -22 69 -57 69s-57 -19 -57 -69v-378z
" />
    <glyph glyph-name="omacron" unicode="&#x14d;" 
d="M313 819v-78h-230v78h230zM31 532c0 112 59 176 167 176s167 -64 167 -176v-364c0 -112 -59 -176 -167 -176s-167 64 -167 176v364zM141 161c0 -50 22 -69 57 -69s57 19 57 69v378c0 50 -22 69 -57 69s-57 -19 -57 -69v-378z" />
    <glyph glyph-name="oslash" unicode="&#xf8;" 
d="M31 532c0 112 59 176 167 176c40 0 74 -9 100 -26l20 55l37 -13l-26 -71c24 -29 36 -70 36 -121v-364c0 -112 -59 -176 -167 -176c-40 0 -74 8 -100 25l-20 -54l-37 13l25 70c-23 30 -35 71 -35 122v364zM141 251l112 309c-5 34 -26 48 -55 48c-35 0 -57 -19 -57 -69
v-288zM198 92c35 0 57 19 57 69v288l-113 -309c6 -35 26 -48 56 -48z" />
    <glyph glyph-name="oslashacute" unicode="&#x1ff;" 
d="M316 848l-102 -111h-74l68 111h108zM31 532c0 112 59 176 167 176c40 0 74 -9 100 -26l20 55l37 -13l-26 -71c24 -29 36 -70 36 -121v-364c0 -112 -59 -176 -167 -176c-40 0 -74 8 -100 25l-20 -54l-37 13l25 70c-23 30 -35 71 -35 122v364zM141 251l112 309
c-5 34 -26 48 -55 48c-35 0 -57 -19 -57 -69v-288zM198 92c35 0 57 19 57 69v288l-113 -309c6 -35 26 -48 56 -48z" />
    <glyph glyph-name="otilde" unicode="&#xf5;" 
d="M238 813c18 0 31 4 43 29l53 -37c-19 -51 -50 -68 -85 -68c-42 0 -60 25 -90 25c-18 0 -31 -4 -43 -29l-53 37c19 51 50 68 85 68c42 0 60 -25 90 -25zM31 532c0 112 59 176 167 176s167 -64 167 -176v-364c0 -112 -59 -176 -167 -176s-167 64 -167 176v364zM141 161
c0 -50 22 -69 57 -69s57 19 57 69v378c0 50 -22 69 -57 69s-57 -19 -57 -69v-378z" />
    <glyph glyph-name="oe" unicode="&#x153;" horiz-adv-x="586" 
d="M368 405h151v-100h-151v-205h190v-100h-364c-110 0 -164 61 -164 173v354c0 112 54 173 164 173h364v-100h-190v-195zM258 600h-62c-35 0 -56 -18 -56 -68v-364c0 -50 21 -68 56 -68h62v500z" />
    <glyph glyph-name="p" unicode="p" horiz-adv-x="377" 
d="M202 700c110 0 164 -61 164 -173v-91c0 -112 -54 -173 -164 -173h-52v-263h-110v700h162zM150 600v-237h52c35 0 54 16 54 66v105c0 50 -19 66 -54 66h-52z" />
    <glyph glyph-name="thorn" unicode="&#xfe;" horiz-adv-x="377" 
d="M40 700h110v-80h52c110 0 164 -61 164 -173v-91c0 -112 -54 -173 -164 -173h-52v-183h-110v700zM150 520v-237h52c35 0 54 16 54 66v105c0 50 -19 66 -54 66h-52z" />
    <glyph glyph-name="q" unicode="q" 
d="M31 532c0 112 59 176 167 176s167 -64 167 -176v-364c0 -39 -7 -72 -21 -98c5 -13 13 -15 31 -15h10v-98h-15c-49 0 -80 18 -95 48c-22 -8 -48 -13 -77 -13c-108 0 -167 64 -167 176v364zM141 161c0 -50 22 -69 57 -69s57 19 57 69v378c0 50 -22 69 -57 69
s-57 -19 -57 -69v-378z" />
    <glyph glyph-name="r" unicode="r" horiz-adv-x="402" 
d="M270 0c-6 18 -10 29 -10 86v110c0 65 -22 89 -72 89h-38v-285h-110v700h166c114 0 163 -53 163 -161v-55c0 -72 -23 -119 -72 -142c55 -23 73 -76 73 -149v-108c0 -34 1 -59 12 -85h-112zM150 600v-215h43c41 0 66 18 66 74v69c0 50 -17 72 -56 72h-53z" />
    <glyph glyph-name="racute" unicode="&#x155;" horiz-adv-x="402" 
d="M313 848l-102 -111h-74l68 111h108zM270 0c-6 18 -10 29 -10 86v110c0 65 -22 89 -72 89h-38v-285h-110v700h166c114 0 163 -53 163 -161v-55c0 -72 -23 -119 -72 -142c55 -23 73 -76 73 -149v-108c0 -34 1 -59 12 -85h-112zM150 600v-215h43c41 0 66 18 66 74v69
c0 50 -17 72 -56 72h-53z" />
    <glyph glyph-name="rcaron" unicode="&#x159;" horiz-adv-x="402" 
d="M150 848l44 -56l45 56h94l-89 -111h-99l-89 111h94zM270 0c-6 18 -10 29 -10 86v110c0 65 -22 89 -72 89h-38v-285h-110v700h166c114 0 163 -53 163 -161v-55c0 -72 -23 -119 -72 -142c55 -23 73 -76 73 -149v-108c0 -34 1 -59 12 -85h-112zM150 600v-215h43
c41 0 66 18 66 74v69c0 50 -17 72 -56 72h-53z" />
    <glyph glyph-name="s" unicode="s" horiz-adv-x="374" 
d="M26 532c0 112 55 176 162 176s162 -64 162 -176v-22h-104v29c0 50 -20 69 -55 69s-55 -19 -55 -69c0 -144 215 -171 215 -371c0 -112 -56 -176 -164 -176s-164 64 -164 176v43h104v-50c0 -50 22 -68 57 -68s57 18 57 68c0 144 -215 171 -215 371z" />
    <glyph glyph-name="sacute" unicode="&#x15b;" horiz-adv-x="374" 
d="M305 848l-102 -111h-74l68 111h108zM26 532c0 112 55 176 162 176s162 -64 162 -176v-22h-104v29c0 50 -20 69 -55 69s-55 -19 -55 -69c0 -144 215 -171 215 -371c0 -112 -56 -176 -164 -176s-164 64 -164 176v43h104v-50c0 -50 22 -68 57 -68s57 18 57 68
c0 144 -215 171 -215 371z" />
    <glyph glyph-name="scaron" unicode="&#x161;" horiz-adv-x="374" 
d="M142 848l44 -56l45 56h94l-89 -111h-99l-89 111h94zM26 532c0 112 55 176 162 176s162 -64 162 -176v-22h-104v29c0 50 -20 69 -55 69s-55 -19 -55 -69c0 -144 215 -171 215 -371c0 -112 -56 -176 -164 -176s-164 64 -164 176v43h104v-50c0 -50 22 -68 57 -68
s57 18 57 68c0 144 -215 171 -215 371z" />
    <glyph glyph-name="scedilla" unicode="&#x15f;" horiz-adv-x="374" 
d="M26 532c0 112 55 176 162 176s162 -64 162 -176v-22h-104v29c0 50 -20 69 -55 69s-55 -19 -55 -69c0 -144 215 -171 215 -371c0 -106 -50 -168 -146 -175v-32c49 0 74 -12 74 -47c0 -54 -42 -61 -101 -61c-55 0 -96 12 -96 58v10h74v-8c0 -15 11 -20 22 -20
c17 0 25 7 25 24c0 19 -12 26 -36 26h-10v51c-89 11 -134 73 -134 174v43h104v-50c0 -50 22 -68 57 -68s57 18 57 68c0 144 -215 171 -215 371z" />
    <glyph glyph-name="scircumflex" unicode="&#x15d;" horiz-adv-x="374" 
d="M48 737l89 111h99l89 -111h-94l-45 55l-44 -55h-94zM26 532c0 112 55 176 162 176s162 -64 162 -176v-22h-104v29c0 50 -20 69 -55 69s-55 -19 -55 -69c0 -144 215 -171 215 -371c0 -112 -56 -176 -164 -176s-164 64 -164 176v43h104v-50c0 -50 22 -68 57 -68
s57 18 57 68c0 144 -215 171 -215 371z" />
    <glyph glyph-name="germandbls" unicode="&#xdf;" horiz-adv-x="748" 
d="M26 532c0 112 55 176 162 176s162 -64 162 -176v-22h-104v29c0 50 -20 69 -55 69s-55 -19 -55 -69c0 -144 215 -171 215 -371c0 -112 -56 -176 -164 -176s-164 64 -164 176v43h104v-50c0 -50 22 -68 57 -68s57 18 57 68c0 144 -215 171 -215 371zM400 532
c0 112 55 176 162 176s162 -64 162 -176v-22h-104v29c0 50 -20 69 -55 69s-55 -19 -55 -69c0 -144 215 -171 215 -371c0 -112 -56 -176 -164 -176s-164 64 -164 176v43h104v-50c0 -50 22 -68 57 -68s57 18 57 68c0 144 -215 171 -215 371z" />
    <glyph glyph-name="t" unicode="t" horiz-adv-x="356" 
d="M8 700h340v-100h-115v-600h-110v600h-115v100z" />
    <glyph glyph-name="tbar" unicode="&#x167;" horiz-adv-x="356" 
d="M123 487v113h-115v100h340v-100h-115v-113h66v-82h-66v-405h-110v405h-66v82h66z" />
    <glyph glyph-name="tcaron" unicode="&#x165;" horiz-adv-x="356" 
d="M133 848l44 -56l45 56h94l-89 -111h-99l-89 111h94zM8 700h340v-100h-115v-600h-110v600h-115v100z" />
    <glyph glyph-name="u" unicode="u" horiz-adv-x="398" 
d="M145 700v-540c0 -50 22 -68 57 -68s57 18 57 68v540h104v-533c0 -112 -56 -176 -164 -176s-164 64 -164 176v533h110z" />
    <glyph glyph-name="uacute" unicode="&#xfa;" horiz-adv-x="398" 
d="M318 848l-102 -111h-74l68 111h108zM145 700v-540c0 -50 22 -68 57 -68s57 18 57 68v540h104v-533c0 -112 -56 -176 -164 -176s-164 64 -164 176v533h110z" />
    <glyph glyph-name="ubreve" unicode="&#x16d;" horiz-adv-x="398" 
d="M247 848h65c0 -70 -38 -115 -113 -115s-110 45 -111 115h65c3 -38 18 -47 46 -47c29 0 45 9 48 47zM145 700v-540c0 -50 22 -68 57 -68s57 18 57 68v540h104v-533c0 -112 -56 -176 -164 -176s-164 64 -164 176v533h110z" />
    <glyph glyph-name="ucircumflex" unicode="&#xfb;" horiz-adv-x="398" 
d="M62 737l89 111h99l89 -111h-94l-45 55l-44 -55h-94zM145 700v-540c0 -50 22 -68 57 -68s57 18 57 68v540h104v-533c0 -112 -56 -176 -164 -176s-164 64 -164 176v533h110z" />
    <glyph glyph-name="udieresis" unicode="&#xfc;" horiz-adv-x="398" 
d="M173 833v-96h-96v96h96zM325 833v-96h-96v96h96zM145 700v-540c0 -50 22 -68 57 -68s57 18 57 68v540h104v-533c0 -112 -56 -176 -164 -176s-164 64 -164 176v533h110z" />
    <glyph glyph-name="ugrave" unicode="&#xf9;" horiz-adv-x="398" 
d="M192 848l68 -111h-79l-102 111h113zM145 700v-540c0 -50 22 -68 57 -68s57 18 57 68v540h104v-533c0 -112 -56 -176 -164 -176s-164 64 -164 176v533h110z" />
    <glyph glyph-name="uhungarumlaut" unicode="&#x171;" horiz-adv-x="398" 
d="M234 848l-83 -111h-67l50 111h100zM365 848l-84 -111h-66l49 111h101zM145 700v-540c0 -50 22 -68 57 -68s57 18 57 68v540h104v-533c0 -112 -56 -176 -164 -176s-164 64 -164 176v533h110z" />
    <glyph glyph-name="umacron" unicode="&#x16b;" horiz-adv-x="398" 
d="M315 819v-78h-230v78h230zM145 700v-540c0 -50 22 -68 57 -68s57 18 57 68v540h104v-533c0 -112 -56 -176 -164 -176s-164 64 -164 176v533h110z" />
    <glyph glyph-name="uni0123" unicode="&#x123;" horiz-adv-x="390" 
d="M205 390h154v-222c0 -112 -56 -176 -164 -176s-164 64 -164 176v364c0 112 56 176 164 176s164 -64 164 -176v-68h-104v75c0 50 -22 69 -57 69s-57 -19 -57 -69v-378c0 -50 22 -68 57 -68s57 18 57 68v129h-50v100zM149 -125v92h92v-82l-43 -64h-39l26 54h-36z" />
    <glyph glyph-name="uni0137" unicode="&#x137;" horiz-adv-x="414" 
d="M184 279l-34 -64v-215h-110v700h110v-305l144 305h110l-153 -312l153 -388h-113zM169 -125v92h92v-82l-43 -64h-39l26 54h-36z" />
    <glyph glyph-name="uni013C" unicode="&#x13c;" horiz-adv-x="339" 
d="M40 700h110v-600h181v-100h-291v700zM140 -125v92h92v-82l-43 -64h-39l26 54h-36z" />
    <glyph glyph-name="uni0146" unicode="&#x146;" horiz-adv-x="427" 
d="M138 507v-507h-99v700h138l113 -419v419h98v-700h-113zM167 -125v92h92v-82l-43 -64h-39l26 54h-36z" />
    <glyph glyph-name="uni0157" unicode="&#x157;" horiz-adv-x="402" 
d="M270 0c-6 18 -10 29 -10 86v110c0 65 -22 89 -72 89h-38v-285h-110v700h166c114 0 163 -53 163 -161v-55c0 -72 -23 -119 -72 -142c55 -23 73 -76 73 -149v-108c0 -34 1 -59 12 -85h-112zM150 600v-215h43c41 0 66 18 66 74v69c0 50 -17 72 -56 72h-53zM157 -125v92h92
v-82l-43 -64h-39l26 54h-36z" />
    <glyph glyph-name="uni0163" unicode="&#x163;" horiz-adv-x="356" 
d="M88 -99h64v-10c0 -14 11 -18 21 -18c17 0 26 9 26 26c0 19 -12 28 -36 28h-11v73h-29v600h-115v100h340v-100h-115v-600h-31v-39c39 0 63 -22 63 -57c0 -60 -42 -82 -91 -82c-45 0 -86 23 -86 69v10z" />
    <glyph glyph-name="uni0219" unicode="&#x219;" horiz-adv-x="374" 
d="M26 532c0 112 55 176 162 176s162 -64 162 -176v-22h-104v29c0 50 -20 69 -55 69s-55 -19 -55 -69c0 -144 215 -171 215 -371c0 -112 -56 -176 -164 -176s-164 64 -164 176v43h104v-50c0 -50 22 -68 57 -68s57 18 57 68c0 144 -215 171 -215 371zM138 -125v92h92v-82
l-43 -64h-39l26 54h-36z" />
    <glyph glyph-name="uni021B" unicode="&#x21b;" horiz-adv-x="356" 
d="M8 700h340v-100h-115v-600h-110v600h-115v100zM132 -125v92h92v-82l-43 -64h-39l26 54h-36z" />
    <glyph glyph-name="uni1E03" unicode="&#x1e03;" horiz-adv-x="406" 
d="M234 833v-96h-96v96h96zM206 700c114 0 163 -53 163 -161v-25c0 -72 -22 -118 -71 -141c59 -23 82 -76 82 -150v-57c0 -108 -57 -166 -167 -166h-173v700h166zM150 600v-185h43c41 0 66 18 66 74v39c0 50 -17 72 -56 72h-53zM150 315v-215h63c37 0 57 17 57 69v61
c0 65 -21 85 -71 85h-49z" />
    <glyph glyph-name="uni1E0B" unicode="&#x1e0b;" horiz-adv-x="408" 
d="M242 833v-96h-96v96h96zM40 700h174c110 0 164 -61 164 -173v-354c0 -112 -54 -173 -164 -173h-174v700zM150 600v-500h62c35 0 56 18 56 68v364c0 50 -21 68 -56 68h-62z" />
    <glyph glyph-name="uni1E1F" unicode="&#x1e1f;" horiz-adv-x="344" 
d="M230 833v-96h-96v96h96zM150 389h142v-100h-142v-289h-110v700h291v-100h-181v-211z" />
    <glyph glyph-name="uni1E41" unicode="&#x1e41;" horiz-adv-x="541" 
d="M318 833v-96h-96v96h96zM273 203l75 497h153v-700h-104v502l-76 -502h-104l-82 495v-495h-96v700h153z" />
    <glyph glyph-name="uni1E57" unicode="&#x1e57;" horiz-adv-x="377" 
d="M238 833v-96h-96v96h96zM202 700c110 0 164 -61 164 -173v-91c0 -112 -54 -173 -164 -173h-52v-263h-110v700h162zM150 600v-237h52c35 0 54 16 54 66v105c0 50 -19 66 -54 66h-52z" />
    <glyph glyph-name="uni1E61" unicode="&#x1e61;" horiz-adv-x="374" 
d="M235 833v-96h-96v96h96zM26 532c0 112 55 176 162 176s162 -64 162 -176v-22h-104v29c0 50 -20 69 -55 69s-55 -19 -55 -69c0 -144 215 -171 215 -371c0 -112 -56 -176 -164 -176s-164 64 -164 176v43h104v-50c0 -50 22 -68 57 -68s57 18 57 68c0 144 -215 171 -215 371z
" />
    <glyph glyph-name="uni1E6B" unicode="&#x1e6b;" horiz-adv-x="356" 
d="M226 833v-96h-96v96h96zM8 700h340v-100h-115v-600h-110v600h-115v100z" />
    <glyph glyph-name="uogonek" unicode="&#x173;" horiz-adv-x="398" 
d="M145 700v-540c0 -50 22 -68 57 -68s57 18 57 68v540h104v-533c0 -59 -9 -117 -63 -159c-28 -22 -34 -51 -34 -66c0 -19 17 -28 35 -28c20 0 25 3 36 6v-56c-23 -9 -40 -11 -68 -11c-53 0 -87 21 -87 62c0 30 19 57 58 80c-13 -3 -26 -4 -41 -4c-108 0 -164 64 -164 176
v533h110z" />
    <glyph glyph-name="uring" unicode="&#x16f;" horiz-adv-x="398" 
d="M120 814c0 45 35 80 80 80s80 -35 80 -80s-35 -80 -80 -80s-80 35 -80 80zM170 814c0 -17 13 -30 30 -30s30 13 30 30s-13 30 -30 30s-30 -13 -30 -30zM145 700v-540c0 -50 22 -68 57 -68s57 18 57 68v540h104v-533c0 -112 -56 -176 -164 -176s-164 64 -164 176v533h110z
" />
    <glyph glyph-name="utilde" unicode="&#x169;" horiz-adv-x="398" 
d="M240 813c18 0 31 4 43 29l53 -37c-19 -51 -50 -68 -85 -68c-42 0 -60 25 -90 25c-18 0 -31 -4 -43 -29l-53 37c19 51 50 68 85 68c42 0 60 -25 90 -25zM145 700v-540c0 -50 22 -68 57 -68s57 18 57 68v540h104v-533c0 -112 -56 -176 -164 -176s-164 64 -164 176v533h110z
" />
    <glyph glyph-name="v" unicode="v" horiz-adv-x="402" 
d="M206 129l84 571h101l-108 -700h-164l-108 700h111z" />
    <glyph glyph-name="w" unicode="w" horiz-adv-x="563" 
d="M284 373l-40 -373h-151l-78 700h107l59 -552l53 552h106l55 -556l57 556h96l-78 -700h-146z" />
    <glyph glyph-name="wacute" unicode="&#x1e83;" horiz-adv-x="563" 
d="M399 848l-102 -111h-74l68 111h108zM284 373l-40 -373h-151l-78 700h107l59 -552l53 552h106l55 -556l57 556h96l-78 -700h-146z" />
    <glyph glyph-name="wcircumflex" unicode="&#x175;" horiz-adv-x="563" 
d="M143 737l89 111h99l89 -111h-94l-45 55l-44 -55h-94zM284 373l-40 -373h-151l-78 700h107l59 -552l53 552h106l55 -556l57 556h96l-78 -700h-146z" />
    <glyph glyph-name="wdieresis" unicode="&#x1e85;" horiz-adv-x="563" 
d="M253 833v-96h-96v96h96zM405 833v-96h-96v96h96zM284 373l-40 -373h-151l-78 700h107l59 -552l53 552h106l55 -556l57 556h96l-78 -700h-146z" />
    <glyph glyph-name="wgrave" unicode="&#x1e81;" horiz-adv-x="563" 
d="M274 848l68 -111h-79l-102 111h113zM284 373l-40 -373h-151l-78 700h107l59 -552l53 552h106l55 -556l57 556h96l-78 -700h-146z" />
    <glyph glyph-name="x" unicode="x" horiz-adv-x="430" 
d="M407 700l-115 -340l123 -360h-116l-90 277l-91 -277h-103l123 360l-115 340h114l83 -258l85 258h102z" />
    <glyph glyph-name="y" unicode="y" 
d="M143 232l-139 468h115l84 -319l84 319h105l-139 -468v-232h-110v232z" />
    <glyph glyph-name="yacute" unicode="&#xfd;" 
d="M320 848l-102 -111h-74l68 111h108zM143 232l-139 468h115l84 -319l84 319h105l-139 -468v-232h-110v232z" />
    <glyph glyph-name="ycircumflex" unicode="&#x177;" 
d="M64 737l89 111h99l89 -111h-94l-45 55l-44 -55h-94zM143 232l-139 468h115l84 -319l84 319h105l-139 -468v-232h-110v232z" />
    <glyph glyph-name="ydieresis" unicode="&#xff;" 
d="M174 833v-96h-96v96h96zM326 833v-96h-96v96h96zM143 232l-139 468h115l84 -319l84 319h105l-139 -468v-232h-110v232z" />
    <glyph glyph-name="ygrave" unicode="&#x1ef3;" 
d="M195 848l68 -111h-79l-102 111h113zM143 232l-139 468h115l84 -319l84 319h105l-139 -468v-232h-110v232z" />
    <glyph glyph-name="z" unicode="z" horiz-adv-x="370" 
d="M345 700v-98l-209 -502h209v-100h-322v98l209 502h-199v100h312z" />
    <glyph glyph-name="zacute" unicode="&#x17a;" horiz-adv-x="370" 
d="M304 848l-102 -111h-74l68 111h108zM345 700v-98l-209 -502h209v-100h-322v98l209 502h-199v100h312z" />
    <glyph glyph-name="zcaron" unicode="&#x17e;" horiz-adv-x="370" 
d="M142 848l44 -56l45 56h94l-89 -111h-99l-89 111h94zM345 700v-98l-209 -502h209v-100h-322v98l209 502h-199v100h312z" />
    <glyph glyph-name="zdotaccent" unicode="&#x17c;" horiz-adv-x="370" 
d="M234 833v-96h-96v96h96zM345 700v-98l-209 -502h209v-100h-322v98l209 502h-199v100h312z" />
    <glyph glyph-name="ordfeminine" unicode="&#xaa;" horiz-adv-x="278" 
d="M30 433c0 95 59 122 142 125v46c0 26 -9 37 -28 37c-22 0 -34 -11 -34 -43v-23h-66v19c0 70 34 111 103 111c67 0 95 -41 95 -111v-261h-59l-4 48c-11 -35 -35 -53 -71 -53c-52 0 -78 35 -78 101v4zM100 435c0 -32 14 -43 36 -43c21 0 34 9 36 36v78
c-62 -3 -72 -35 -72 -62v-9zM242 287v-69h-212v69h212z" />
    <glyph glyph-name="ordmasculine" unicode="&#xba;" horiz-adv-x="280" 
d="M34 594c0 70 37 111 106 111s106 -41 106 -111v-155c0 -70 -37 -111 -106 -111s-106 41 -106 111v155zM104 435c0 -32 13 -43 36 -43c22 0 36 11 36 43v163c0 32 -14 43 -36 43c-23 0 -36 -11 -36 -43v-163zM246 287v-69h-212v69h212z" />
    <glyph glyph-name="uni0410" unicode="&#x410;" horiz-adv-x="407" 
d="M396 0h-111l-19 127h-135l-19 -127h-101l112 700h161zM145 222h106l-53 354z" />
    <glyph glyph-name="uni0411" unicode="&#x411;" horiz-adv-x="415" 
d="M41 0v700h308v-100h-198v-179h64c110 0 166 -61 166 -173v-75c0 -112 -56 -173 -166 -173h-174zM215 100c35 0 56 16 56 66v89c0 50 -21 66 -56 66h-64v-221h64z" />
    <glyph glyph-name="uni0412" unicode="&#x412;" horiz-adv-x="406" 
d="M206 700c114 0 163 -53 163 -161v-25c0 -72 -22 -118 -71 -141c59 -23 82 -76 82 -150v-57c0 -108 -57 -166 -167 -166h-173v700h166zM150 600v-185h43c41 0 66 18 66 74v39c0 50 -17 72 -56 72h-53zM150 315v-215h63c37 0 57 17 57 69v61c0 65 -21 85 -71 85h-49z" />
    <glyph glyph-name="uni0413" unicode="&#x413;" horiz-adv-x="365" 
d="M41 0v700h290v-100h-180v-600h-110z" />
    <glyph glyph-name="uni0414" unicode="&#x414;" horiz-adv-x="488" 
d="M358 -94v94h-235v-94h-107v192h43c19 24 25 50 27 91l25 511h308v-602h48v-192h-109zM194 191c-3 -53 -13 -76 -31 -93h144v502h-93z" />
    <glyph glyph-name="uni0415" unicode="&#x415;" horiz-adv-x="368" 
d="M150 405h151v-100h-151v-205h190v-100h-300v700h300v-100h-190v-195z" />
    <glyph glyph-name="uni0401" unicode="&#x401;" horiz-adv-x="368" 
d="M161 833v-96h-96v96h96zM313 833v-96h-96v96h96zM150 405h151v-100h-151v-205h190v-100h-300v700h300v-100h-190v-195z" />
    <glyph glyph-name="uni0416" unicode="&#x416;" horiz-adv-x="604" 
d="M357 417l130 283h110l-135 -284l135 -416h-113l-100 310l-27 -53v-257h-109v257l-27 54l-100 -311h-113l136 413l-136 287h110l130 -283v283h109v-283z" />
    <glyph glyph-name="uni0417" unicode="&#x417;" 
d="M252 528c0 63 -22 80 -57 80s-58 -19 -58 -69v-57h-101v52c0 112 54 174 162 174s164 -64 164 -176v-18c0 -75 -24 -122 -77 -144c55 -24 77 -76 77 -147v-55c0 -112 -56 -176 -164 -176s-164 64 -164 176v77h104v-84c0 -50 22 -69 57 -69s57 17 57 79v55
c0 65 -22 89 -72 89h-27v100h33c41 0 66 18 66 74v39z" />
    <glyph glyph-name="uni0418" unicode="&#x418;" horiz-adv-x="427" 
d="M153 0h-113v700h98v-443l40 154l90 289h121v-700h-99v493l-45 -172z" />
    <glyph glyph-name="uni0419" unicode="&#x419;" horiz-adv-x="429" 
d="M266 856h67c0 -68 -39 -111 -117 -111c-77 0 -113 43 -115 111h68c3 -37 18 -46 47 -46c30 0 47 9 50 46zM245 321l45 172v-493h99v700h-121l-90 -289l-40 -154v443h-98v-700h113z" />
    <glyph glyph-name="uni041A" unicode="&#x41a;" horiz-adv-x="414" 
d="M184 279l-34 -64v-215h-110v700h110v-305l144 305h110l-153 -312l153 -388h-113z" />
    <glyph glyph-name="uni041B" unicode="&#x41b;" horiz-adv-x="450" 
d="M9 99c50 0 66 7 68 72l18 529h311v-700h-112v600h-96l-12 -423c-4 -128 -50 -178 -160 -178h-17v100z" />
    <glyph glyph-name="uni041C" unicode="&#x41c;" horiz-adv-x="541" 
d="M273 203l75 497h153v-700h-104v502l-76 -502h-104l-82 495v-495h-96v700h153z" />
    <glyph glyph-name="uni041D" unicode="&#x41d;" horiz-adv-x="427" 
d="M150 0h-110v700h110v-300h125v300h112v-700h-112v300h-125v-300z" />
    <glyph glyph-name="uni041E" unicode="&#x41e;" 
d="M31 532c0 112 59 176 167 176s167 -64 167 -176v-364c0 -112 -59 -176 -167 -176s-167 64 -167 176v364zM141 161c0 -50 22 -69 57 -69s57 19 57 69v378c0 50 -22 69 -57 69s-57 -19 -57 -69v-378z" />
    <glyph glyph-name="uni041F" unicode="&#x41f;" horiz-adv-x="427" 
d="M150 0h-110v700h347v-700h-112v600h-125v-600z" />
    <glyph glyph-name="uni0420" unicode="&#x420;" horiz-adv-x="377" 
d="M202 700c110 0 164 -61 164 -173v-91c0 -112 -54 -173 -164 -173h-52v-263h-110v700h162zM150 600v-237h52c35 0 54 16 54 66v105c0 50 -19 66 -54 66h-52z" />
    <glyph glyph-name="uni0421" unicode="&#x421;" horiz-adv-x="386" 
d="M359 261v-93c0 -112 -56 -176 -164 -176s-164 64 -164 176v364c0 112 56 176 164 176s164 -64 164 -176v-68h-104v75c0 50 -22 69 -57 69s-57 -19 -57 -69v-378c0 -50 22 -68 57 -68s57 18 57 68v100h104z" />
    <glyph glyph-name="uni0422" unicode="&#x422;" horiz-adv-x="356" 
d="M8 700h340v-100h-115v-600h-110v600h-115v100z" />
    <glyph glyph-name="uni0423" unicode="&#x423;" horiz-adv-x="408" 
d="M284 178c-26 -126 -69 -189 -222 -179v98c56 -4 88 6 97 57l1 6l-152 540h109l60 -239l34 -164l26 163l50 240h115z" />
    <glyph glyph-name="uni0424" unicode="&#x424;" horiz-adv-x="583" 
d="M236 79h-41c-110 0 -164 61 -164 173v191c0 112 54 173 164 173h41v84h108v-84h41c110 0 164 -61 164 -173v-191c0 -112 -54 -173 -164 -173h-41v-79h-108v79zM236 519h-41c-35 0 -55 -19 -55 -69v-205c0 -50 20 -70 55 -70h41v344zM344 519v-344h41c35 0 55 20 55 70
v205c0 50 -20 69 -55 69h-41z" />
    <glyph glyph-name="uni0425" unicode="&#x425;" horiz-adv-x="430" 
d="M407 700l-115 -340l123 -360h-116l-90 277l-91 -277h-103l123 360l-115 340h114l83 -258l85 258h102z" />
    <glyph glyph-name="uni0427" unicode="&#x427;" horiz-adv-x="415" 
d="M374 700v-700h-110v282c-24 -26 -64 -39 -94 -39c-90 0 -137 65 -137 161v296h110v-287c0 -47 29 -69 64 -69s57 25 57 72v284h110z" />
    <glyph glyph-name="uni0426" unicode="&#x426;" horiz-adv-x="455" 
d="M40 700h110v-600h125v600h112v-602h48v-192h-107v94h-288v700z" />
    <glyph glyph-name="uni0428" unicode="&#x428;" horiz-adv-x="600" 
d="M40 0v700h110v-600h95v600h110v-600h95v600h110v-700h-520z" />
    <glyph glyph-name="uni0429" unicode="&#x429;" horiz-adv-x="629" 
d="M560 98h49v-192h-107v94h-462v700h110v-600h95v600h110v-600h95v600h110v-602z" />
    <glyph glyph-name="uni042C" unicode="&#x42c;" horiz-adv-x="392" 
d="M40 0v700h110v-263h52c110 0 164 -61 164 -173v-91c0 -112 -54 -173 -164 -173h-162zM202 100c35 0 54 16 54 66v105c0 50 -19 66 -54 66h-52v-237h52z" />
    <glyph glyph-name="uni042A" unicode="&#x42a;" horiz-adv-x="439" 
d="M8 700h189v-263h52c110 0 164 -61 164 -173v-91c0 -112 -54 -173 -164 -173h-162v600h-79v100zM249 100c35 0 54 16 54 66v105c0 50 -19 66 -54 66h-52v-237h52z" />
    <glyph glyph-name="uni042B" unicode="&#x42b;" horiz-adv-x="579" 
d="M40 0v700h110v-263h52c110 0 164 -61 164 -173v-91c0 -112 -54 -173 -164 -173h-162zM429 0v700h110v-700h-110zM202 100c35 0 54 16 54 66v105c0 50 -19 66 -54 66h-52v-237h52z" />
    <glyph glyph-name="uni042D" unicode="&#x42d;" horiz-adv-x="386" 
d="M130 251v-90c0 -50 22 -68 57 -68s57 18 57 68v151h-101v100h101v127c0 50 -22 69 -57 69s-57 -19 -57 -69v-66h-102v59c0 112 54 176 162 176s164 -64 164 -176v-364c0 -112 -56 -176 -164 -176s-164 64 -164 176v83h104z" />
    <glyph glyph-name="uni042E" unicode="&#x42e;" horiz-adv-x="599" 
d="M232 300h-82v-300h-110v700h110v-300h82v132c0 112 59 176 167 176s167 -64 167 -176v-364c0 -112 -59 -176 -167 -176s-167 64 -167 176v132zM342 161c0 -50 22 -69 57 -69s57 19 57 69v378c0 50 -22 69 -57 69s-57 -19 -57 -69v-378z" />
    <glyph glyph-name="uni042F" unicode="&#x42f;" horiz-adv-x="402" 
d="M20 0c11 26 12 51 12 85v108c0 73 18 126 73 149c-49 23 -72 70 -72 142v55c0 108 49 161 163 161h166v-700h-110v285h-38c-50 0 -72 -24 -72 -89v-110c0 -57 -4 -68 -10 -86h-112zM199 600c-39 0 -56 -22 -56 -72v-69c0 -56 25 -74 66 -74h43v215h-53z" />
    <glyph glyph-name="uni0430" unicode="&#x430;" horiz-adv-x="407" 
d="M396 0h-111l-19 127h-135l-19 -127h-101l112 700h161zM145 222h106l-53 354z" />
    <glyph glyph-name="uni0431" unicode="&#x431;" horiz-adv-x="415" 
d="M41 0v700h308v-100h-198v-179h64c110 0 166 -61 166 -173v-75c0 -112 -56 -173 -166 -173h-174zM215 100c35 0 56 16 56 66v89c0 50 -21 66 -56 66h-64v-221h64z" />
    <glyph glyph-name="uni0432" unicode="&#x432;" horiz-adv-x="406" 
d="M206 700c114 0 163 -53 163 -161v-25c0 -72 -22 -118 -71 -141c59 -23 82 -76 82 -150v-57c0 -108 -57 -166 -167 -166h-173v700h166zM150 600v-185h43c41 0 66 18 66 74v39c0 50 -17 72 -56 72h-53zM150 315v-215h63c37 0 57 17 57 69v61c0 65 -21 85 -71 85h-49z" />
    <glyph glyph-name="uni0433" unicode="&#x433;" horiz-adv-x="365" 
d="M41 0v700h290v-100h-180v-600h-110z" />
    <glyph glyph-name="uni0434" unicode="&#x434;" horiz-adv-x="488" 
d="M358 -94v94h-235v-94h-107v192h43c19 24 25 50 27 91l25 511h308v-602h48v-192h-109zM194 191c-3 -53 -13 -76 -31 -93h144v502h-93z" />
    <glyph glyph-name="uni0435" unicode="&#x435;" horiz-adv-x="368" 
d="M150 405h151v-100h-151v-205h190v-100h-300v700h300v-100h-190v-195z" />
    <glyph glyph-name="uni0451" unicode="&#x451;" horiz-adv-x="368" 
d="M161 833v-96h-96v96h96zM313 833v-96h-96v96h96zM150 405h151v-100h-151v-205h190v-100h-300v700h300v-100h-190v-195z" />
    <glyph glyph-name="uni0436" unicode="&#x436;" horiz-adv-x="604" 
d="M357 417l130 283h110l-135 -284l135 -416h-113l-100 310l-27 -53v-257h-109v257l-27 54l-100 -311h-113l136 413l-136 287h110l130 -283v283h109v-283z" />
    <glyph glyph-name="uni0437" unicode="&#x437;" 
d="M252 528c0 63 -22 80 -57 80s-58 -19 -58 -69v-57h-101v52c0 112 54 174 162 174s164 -64 164 -176v-18c0 -75 -24 -122 -77 -144c55 -24 77 -76 77 -147v-55c0 -112 -56 -176 -164 -176s-164 64 -164 176v77h104v-84c0 -50 22 -69 57 -69s57 17 57 79v55
c0 65 -22 89 -72 89h-27v100h33c41 0 66 18 66 74v39z" />
    <glyph glyph-name="uni0438" unicode="&#x438;" horiz-adv-x="427" 
d="M153 0h-113v700h98v-443l40 154l90 289h121v-700h-99v493l-45 -172z" />
    <glyph glyph-name="uni0439" unicode="&#x439;" horiz-adv-x="429" 
d="M266 856h67c0 -68 -39 -111 -117 -111c-77 0 -113 43 -115 111h68c3 -37 18 -46 47 -46c30 0 47 9 50 46zM245 321l45 172v-493h99v700h-121l-90 -289l-40 -154v443h-98v-700h113z" />
    <glyph glyph-name="uni043A" unicode="&#x43a;" horiz-adv-x="414" 
d="M184 279l-34 -64v-215h-110v700h110v-305l144 305h110l-153 -312l153 -388h-113z" />
    <glyph glyph-name="uni043B" unicode="&#x43b;" horiz-adv-x="450" 
d="M9 99c50 0 66 7 68 72l18 529h311v-700h-112v600h-96l-12 -423c-4 -128 -50 -178 -160 -178h-17v100z" />
    <glyph glyph-name="uni043C" unicode="&#x43c;" horiz-adv-x="541" 
d="M273 203l75 497h153v-700h-104v502l-76 -502h-104l-82 495v-495h-96v700h153z" />
    <glyph glyph-name="uni043D" unicode="&#x43d;" horiz-adv-x="427" 
d="M150 0h-110v700h110v-300h125v300h112v-700h-112v300h-125v-300z" />
    <glyph glyph-name="uni043E" unicode="&#x43e;" 
d="M31 532c0 112 59 176 167 176s167 -64 167 -176v-364c0 -112 -59 -176 -167 -176s-167 64 -167 176v364zM141 161c0 -50 22 -69 57 -69s57 19 57 69v378c0 50 -22 69 -57 69s-57 -19 -57 -69v-378z" />
    <glyph glyph-name="uni043F" unicode="&#x43f;" horiz-adv-x="427" 
d="M150 0h-110v700h347v-700h-112v600h-125v-600z" />
    <glyph glyph-name="uni0440" unicode="&#x440;" horiz-adv-x="377" 
d="M202 700c110 0 164 -61 164 -173v-91c0 -112 -54 -173 -164 -173h-52v-263h-110v700h162zM150 600v-237h52c35 0 54 16 54 66v105c0 50 -19 66 -54 66h-52z" />
    <glyph glyph-name="uni0441" unicode="&#x441;" horiz-adv-x="386" 
d="M359 261v-93c0 -112 -56 -176 -164 -176s-164 64 -164 176v364c0 112 56 176 164 176s164 -64 164 -176v-68h-104v75c0 50 -22 69 -57 69s-57 -19 -57 -69v-378c0 -50 22 -68 57 -68s57 18 57 68v100h104z" />
    <glyph glyph-name="uni0442" unicode="&#x442;" horiz-adv-x="356" 
d="M8 700h340v-100h-115v-600h-110v600h-115v100z" />
    <glyph glyph-name="uni0443" unicode="&#x443;" horiz-adv-x="408" 
d="M284 178c-26 -126 -69 -189 -222 -179v98c56 -4 88 6 97 57l1 6l-152 540h109l60 -239l34 -164l26 163l50 240h115z" />
    <glyph glyph-name="uni0444" unicode="&#x444;" horiz-adv-x="583" 
d="M236 79h-41c-110 0 -164 61 -164 173v191c0 112 54 173 164 173h41v84h108v-84h41c110 0 164 -61 164 -173v-191c0 -112 -54 -173 -164 -173h-41v-79h-108v79zM236 519h-41c-35 0 -55 -19 -55 -69v-205c0 -50 20 -70 55 -70h41v344zM344 519v-344h41c35 0 55 20 55 70
v205c0 50 -20 69 -55 69h-41z" />
    <glyph glyph-name="uni0445" unicode="&#x445;" horiz-adv-x="430" 
d="M407 700l-115 -340l123 -360h-116l-90 277l-91 -277h-103l123 360l-115 340h114l83 -258l85 258h102z" />
    <glyph glyph-name="uni0447" unicode="&#x447;" horiz-adv-x="415" 
d="M374 700v-700h-110v282c-24 -26 -64 -39 -94 -39c-90 0 -137 65 -137 161v296h110v-287c0 -47 29 -69 64 -69s57 25 57 72v284h110z" />
    <glyph glyph-name="uni0446" unicode="&#x446;" horiz-adv-x="455" 
d="M40 700h110v-600h125v600h112v-602h48v-192h-107v94h-288v700z" />
    <glyph glyph-name="uni0448" unicode="&#x448;" horiz-adv-x="600" 
d="M40 0v700h110v-600h95v600h110v-600h95v600h110v-700h-520z" />
    <glyph glyph-name="uni0449" unicode="&#x449;" horiz-adv-x="629" 
d="M560 98h49v-192h-107v94h-462v700h110v-600h95v600h110v-600h95v600h110v-602z" />
    <glyph glyph-name="uni044C" unicode="&#x44c;" horiz-adv-x="392" 
d="M40 0v700h110v-263h52c110 0 164 -61 164 -173v-91c0 -112 -54 -173 -164 -173h-162zM202 100c35 0 54 16 54 66v105c0 50 -19 66 -54 66h-52v-237h52z" />
    <glyph glyph-name="uni044A" unicode="&#x44a;" horiz-adv-x="439" 
d="M8 700h189v-263h52c110 0 164 -61 164 -173v-91c0 -112 -54 -173 -164 -173h-162v600h-79v100zM249 100c35 0 54 16 54 66v105c0 50 -19 66 -54 66h-52v-237h52z" />
    <glyph glyph-name="uni044B" unicode="&#x44b;" horiz-adv-x="579" 
d="M40 0v700h110v-263h52c110 0 164 -61 164 -173v-91c0 -112 -54 -173 -164 -173h-162zM429 0v700h110v-700h-110zM202 100c35 0 54 16 54 66v105c0 50 -19 66 -54 66h-52v-237h52z" />
    <glyph glyph-name="uni044D" unicode="&#x44d;" horiz-adv-x="386" 
d="M130 251v-90c0 -50 22 -68 57 -68s57 18 57 68v151h-101v100h101v127c0 50 -22 69 -57 69s-57 -19 -57 -69v-66h-102v59c0 112 54 176 162 176s164 -64 164 -176v-364c0 -112 -56 -176 -164 -176s-164 64 -164 176v83h104z" />
    <glyph glyph-name="uni044E" unicode="&#x44e;" horiz-adv-x="599" 
d="M232 300h-82v-300h-110v700h110v-300h82v132c0 112 59 176 167 176s167 -64 167 -176v-364c0 -112 -59 -176 -167 -176s-167 64 -167 176v132zM342 161c0 -50 22 -69 57 -69s57 19 57 69v378c0 50 -22 69 -57 69s-57 -19 -57 -69v-378z" />
    <glyph glyph-name="uni044F" unicode="&#x44f;" horiz-adv-x="402" 
d="M20 0c11 26 12 51 12 85v108c0 73 18 126 73 149c-49 23 -72 70 -72 142v55c0 108 49 161 163 161h166v-700h-110v285h-38c-50 0 -72 -24 -72 -89v-110c0 -57 -4 -68 -10 -86h-112zM199 600c-39 0 -56 -22 -56 -72v-69c0 -56 25 -74 66 -74h43v215h-53z" />
    <glyph glyph-name="zero" unicode="0" 
d="M31 532c0 112 59 176 167 176s167 -64 167 -176v-364c0 -112 -59 -176 -167 -176s-167 64 -167 176v364zM141 161c0 -50 22 -69 57 -69s57 19 57 69v378c0 50 -22 69 -57 69s-57 -19 -57 -69v-378z" />
    <glyph glyph-name="one" unicode="1" 
d="M108 612c85 0 104 41 121 88h74v-700h-110v534h-85v78z" />
    <glyph glyph-name="two" unicode="2" 
d="M258 528c0 63 -22 80 -57 80s-57 -19 -57 -69v-75h-104v68c0 112 56 176 164 176s164 -64 164 -176c0 -220 -219 -302 -219 -417c0 -5 0 -10 1 -15h208v-100h-318v86c0 206 218 240 218 442z" />
    <glyph glyph-name="three" unicode="3" 
d="M252 528c0 63 -22 80 -57 80s-57 -19 -57 -69v-45h-104v38c0 112 56 176 164 176s164 -64 164 -176v-18c0 -75 -24 -122 -77 -144c55 -24 77 -76 77 -147v-55c0 -112 -56 -176 -164 -176s-164 64 -164 176v58h104v-65c0 -50 22 -69 57 -69s57 17 57 79v55
c0 65 -22 89 -72 89h-37v100h43c41 0 66 18 66 74v39z" />
    <glyph glyph-name="four" unicode="4" 
d="M14 227l200 473h120v-473h52v-100h-52v-127h-108v127h-212v100zM226 227v263l-111 -263h111z" />
    <glyph glyph-name="five" unicode="5" 
d="M139 226v-65c0 -50 22 -68 57 -68s57 18 57 68v154c0 50 -22 69 -57 69s-57 -19 -57 -69v-21h-104l20 406h290v-100h-191l-9 -167c20 33 52 51 96 51c81 0 122 -57 122 -160v-156c0 -112 -56 -176 -164 -176s-164 64 -164 176v58h104z" />
    <glyph glyph-name="six" unicode="6" 
d="M33 526c0 118 54 182 168 182c108 0 164 -64 164 -176v-18h-104v25c0 50 -22 69 -57 69c-39 0 -61 -19 -61 -86v-128c19 40 53 62 102 62c81 0 122 -57 122 -160v-128c0 -112 -59 -176 -167 -176s-167 64 -167 176v358zM200 356c-35 0 -57 -19 -57 -69v-126
c0 -50 22 -68 57 -68s57 18 57 68v126c0 50 -22 69 -57 69z" />
    <glyph glyph-name="seven" unicode="7" 
d="M363 700v-96l-162 -604h-110l161 600h-219v100h330z" />
    <glyph glyph-name="eight" unicode="8" 
d="M370 168c0 -112 -61 -176 -172 -176s-172 64 -172 176v55c0 67 20 119 68 146c-46 25 -68 72 -68 141v22c0 112 61 176 172 176s172 -64 172 -176v-22c0 -69 -23 -116 -68 -141c48 -27 68 -79 68 -146v-55zM136 489c0 -56 26 -74 62 -74c35 0 62 18 62 74v39
c0 63 -27 80 -62 80s-62 -17 -62 -80v-39zM136 171c0 -62 27 -79 62 -79s61 17 62 79v65c0 55 -23 79 -62 79s-62 -24 -62 -79v-65z" />
    <glyph glyph-name="nine" unicode="9" 
d="M363 174c0 -118 -54 -182 -168 -182c-108 0 -164 64 -164 176v18h104v-25c0 -50 22 -69 57 -69c39 0 61 19 61 86v128c-19 -40 -53 -62 -102 -62c-81 0 -122 57 -122 160v128c0 112 59 176 167 176s167 -64 167 -176v-358zM196 344c35 0 57 19 57 69v126
c0 50 -22 68 -57 68s-57 -18 -57 -68v-126c0 -50 22 -69 57 -69z" />
    <glyph glyph-name="zero.alt" 
d="M31 532c0 112 59 176 167 176s167 -64 167 -176v-364c0 -112 -59 -176 -167 -176s-167 64 -167 176v364zM141 161c0 -50 22 -69 57 -69s57 19 57 69v378c0 50 -22 69 -57 69s-57 -19 -57 -69v-378z" />
    <glyph glyph-name="one.alt" horiz-adv-x="250" 
d="M15 612c85 0 104 41 121 88h74v-700h-110v534h-85v78z" />
    <glyph glyph-name="two.alt" horiz-adv-x="369" 
d="M244 528c0 63 -22 80 -57 80s-57 -19 -57 -69v-75h-104v68c0 112 56 176 164 176s164 -64 164 -176c0 -230 -239 -309 -218 -432h208v-100h-318v86c0 206 218 240 218 442z" />
    <glyph glyph-name="three.alt" horiz-adv-x="382" 
d="M245 528c0 63 -22 80 -57 80s-57 -19 -57 -69v-45h-104v38c0 112 56 176 164 176s164 -64 164 -176v-18c0 -75 -24 -122 -77 -144c55 -24 77 -76 77 -147v-55c0 -112 -56 -176 -164 -176s-164 64 -164 176v58h104v-65c0 -50 22 -69 57 -69s57 17 57 79v55
c0 65 -22 89 -72 89h-37v100h43c41 0 66 18 66 74v39z" />
    <glyph glyph-name="four.alt" horiz-adv-x="397" 
d="M14 227l200 473h120v-473h52v-100h-52v-127h-110v127h-210v100zM224 227v259l-109 -259h109z" />
    <glyph glyph-name="five.alt" horiz-adv-x="383" 
d="M132 226v-65c0 -50 22 -68 57 -68s57 18 57 68v154c0 50 -22 69 -57 69s-57 -19 -57 -69v-21h-104l20 406h290v-100h-191l-9 -167c20 33 52 51 96 51c81 0 122 -57 122 -160v-156c0 -112 -56 -176 -164 -176s-164 64 -164 176v58h104z" />
    <glyph glyph-name="six.alt" horiz-adv-x="392" 
d="M31 526c0 118 54 182 168 182c108 0 164 -64 164 -176v-18h-104v25c0 50 -22 69 -57 69c-39 0 -61 -19 -61 -86v-128c19 40 53 62 102 62c81 0 122 -57 122 -160v-128c0 -112 -59 -176 -167 -176s-167 64 -167 176v358zM198 356c-35 0 -57 -19 -57 -69v-126
c0 -50 22 -68 57 -68s57 18 57 68v126c0 50 -22 69 -57 69z" />
    <glyph glyph-name="seven.alt" horiz-adv-x="340" 
d="M10 700h320v-96l-152 -604h-110l151 600h-209v100z" />
    <glyph glyph-name="eight.alt" horiz-adv-x="398" 
d="M371 168c0 -112 -61 -176 -172 -176s-172 64 -172 176v55c0 67 20 119 68 146c-46 25 -68 72 -68 141v22c0 112 61 176 172 176s172 -64 172 -176v-22c0 -69 -23 -116 -68 -141c48 -27 68 -79 68 -146v-55zM137 489c0 -56 26 -74 62 -74c35 0 62 18 62 74v39
c0 63 -27 80 -62 80s-62 -17 -62 -80v-39zM137 171c0 -62 27 -79 62 -79s61 17 62 79v65c0 55 -23 79 -62 79s-62 -24 -62 -79v-65z" />
    <glyph glyph-name="nine.alt" horiz-adv-x="392" 
d="M361 174c0 -118 -54 -182 -168 -182c-108 0 -164 64 -164 176v18h104v-25c0 -50 22 -69 57 -69c39 0 61 19 61 86v128c-19 -40 -53 -62 -102 -62c-81 0 -122 57 -122 160v128c0 112 59 176 167 176s167 -64 167 -176v-358zM194 344c35 0 57 19 57 69v126
c0 50 -22 68 -57 68s-57 -18 -57 -68v-126c0 -50 22 -69 57 -69z" />
    <glyph glyph-name="uni2080" unicode="&#x2080;" horiz-adv-x="280" 
d="M34 272c0 72 37 112 106 112s106 -40 106 -112v-230c0 -72 -37 -112 -106 -112s-106 40 -106 112v230zM104 37c0 -31 13 -44 36 -44c22 0 36 13 36 44v240c0 31 -14 44 -36 44c-23 0 -36 -13 -36 -44v-240z" />
    <glyph glyph-name="uni2081" unicode="&#x2081;" horiz-adv-x="200" 
d="M25 323c54 0 66 26 78 56h46v-444h-70v339h-54v49z" />
    <glyph glyph-name="uni2082" unicode="&#x2082;" horiz-adv-x="280" 
d="M180 272c0 39 -14 50 -36 50s-36 -12 -36 -44v-47h-66v43c0 71 35 111 104 111s104 -40 104 -111c0 -146 -152 -198 -138 -276h132v-63h-202v54c0 130 138 154 138 283z" />
    <glyph glyph-name="uni2083" unicode="&#x2083;" horiz-adv-x="280" 
d="M174 78c0 42 -14 56 -45 56h-24v63h27c26 0 42 13 42 48v25c0 40 -14 51 -36 51s-36 -13 -36 -44v-28h-66v23c0 72 35 112 104 112s104 -40 104 -112v-11c0 -48 -15 -77 -49 -91c35 -15 49 -48 49 -93v-35c0 -72 -35 -112 -104 -112s-104 40 -104 112v36h66v-41
c0 -31 14 -44 36 -44s36 11 36 51v34z" />
    <glyph glyph-name="uni2084" unicode="&#x2084;" horiz-adv-x="280" 
d="M24 79l127 300h76v-300h33v-64h-33v-80h-69v80h-134v64zM158 79v164l-71 -164h71z" />
    <glyph glyph-name="uni2085" unicode="&#x2085;" horiz-adv-x="280" 
d="M103 77v-41c0 -32 14 -43 36 -43s36 11 36 43v97c0 32 -14 44 -36 44s-36 -12 -36 -44v-13h-66l13 258h184v-64h-122l-5 -106c12 21 33 33 61 33c51 0 77 -37 77 -102v-99c0 -71 -35 -112 -104 -112s-104 41 -104 112v37h66z" />
    <glyph glyph-name="uni2086" unicode="&#x2086;" horiz-adv-x="280" 
d="M36 269c0 74 34 115 107 115c68 0 104 -41 104 -112v-11h-66v16c0 32 -14 44 -36 44c-25 0 -39 -12 -39 -55v-81c12 25 33 39 65 39c51 0 77 -36 77 -101v-81c0 -71 -37 -112 -106 -112s-106 41 -106 112v227zM142 161c-22 0 -36 -12 -36 -44v-80c0 -32 14 -43 36 -43
s36 11 36 43v80c0 32 -14 44 -36 44z" />
    <glyph glyph-name="uni2087" unicode="&#x2087;" horiz-adv-x="280" 
d="M245 379v-61l-103 -383h-70l102 381h-139v63h210z" />
    <glyph glyph-name="uni2088" unicode="&#x2088;" horiz-adv-x="280" 
d="M249 42c0 -71 -39 -112 -109 -112s-109 41 -109 112v34c0 43 13 76 43 93c-29 16 -43 46 -43 89v14c0 71 39 112 109 112s109 -41 109 -112v-14c0 -43 -14 -73 -43 -89c30 -17 43 -50 43 -93v-34zM101 245c0 -35 16 -47 39 -47c22 0 39 12 39 47v25c0 40 -17 51 -39 51
s-39 -11 -39 -51v-25zM101 43c0 -39 17 -50 39 -50s39 11 39 50v42c0 35 -14 50 -39 50s-39 -15 -39 -50v-42z" />
    <glyph glyph-name="uni2089" unicode="&#x2089;" horiz-adv-x="280" 
d="M244 45c0 -74 -34 -115 -107 -115c-68 0 -104 41 -104 112v11h66v-16c0 -32 14 -44 36 -44c25 0 39 12 39 55v81c-12 -25 -33 -39 -65 -39c-51 0 -77 36 -77 101v81c0 71 37 112 106 112s106 -41 106 -112v-227zM138 153c22 0 36 12 36 44v80c0 32 -14 43 -36 43
s-36 -11 -36 -43v-80c0 -32 14 -44 36 -44z" />
    <glyph glyph-name="uni2070" unicode="&#x2070;" horiz-adv-x="280" 
d="M34 688c0 72 37 112 106 112s106 -40 106 -112v-230c0 -72 -37 -112 -106 -112s-106 40 -106 112v230zM104 453c0 -31 13 -44 36 -44c22 0 36 13 36 44v240c0 31 -14 44 -36 44c-23 0 -36 -13 -36 -44v-240z" />
    <glyph glyph-name="uni00B9" unicode="&#xb9;" horiz-adv-x="200" 
d="M25 739c54 0 66 26 78 56h46v-444h-70v339h-54v49z" />
    <glyph glyph-name="uni00B2" unicode="&#xb2;" horiz-adv-x="280" 
d="M180 688c0 39 -14 50 -36 50s-36 -12 -36 -44v-47h-66v43c0 71 35 111 104 111s104 -40 104 -111c0 -146 -152 -198 -138 -276h132v-63h-202v54c0 130 138 154 138 283z" />
    <glyph glyph-name="uni00B3" unicode="&#xb3;" horiz-adv-x="280" 
d="M174 494c0 42 -14 56 -45 56h-24v63h27c26 0 42 13 42 48v25c0 40 -14 51 -36 51s-36 -13 -36 -44v-28h-66v23c0 72 35 112 104 112s104 -40 104 -112v-11c0 -48 -15 -77 -49 -91c35 -15 49 -48 49 -93v-35c0 -72 -35 -112 -104 -112s-104 40 -104 112v36h66v-41
c0 -31 14 -44 36 -44s36 11 36 51v34z" />
    <glyph glyph-name="uni2074" unicode="&#x2074;" horiz-adv-x="280" 
d="M24 495l127 300h76v-300h33v-64h-33v-80h-69v80h-134v64zM158 495v164l-71 -164h71z" />
    <glyph glyph-name="uni2075" unicode="&#x2075;" horiz-adv-x="280" 
d="M103 493v-41c0 -32 14 -43 36 -43s36 11 36 43v97c0 32 -14 44 -36 44s-36 -12 -36 -44v-13h-66l13 258h184v-64h-122l-5 -106c12 21 33 33 61 33c51 0 77 -37 77 -102v-99c0 -71 -35 -112 -104 -112s-104 41 -104 112v37h66z" />
    <glyph glyph-name="uni2076" unicode="&#x2076;" horiz-adv-x="280" 
d="M36 685c0 74 34 115 107 115c68 0 104 -41 104 -112v-11h-66v16c0 32 -14 44 -36 44c-25 0 -39 -12 -39 -55v-81c12 25 33 39 65 39c51 0 77 -36 77 -101v-81c0 -71 -37 -112 -106 -112s-106 41 -106 112v227zM142 577c-22 0 -36 -12 -36 -44v-80c0 -32 14 -43 36 -43
s36 11 36 43v80c0 32 -14 44 -36 44z" />
    <glyph glyph-name="uni2077" unicode="&#x2077;" horiz-adv-x="280" 
d="M245 795v-61l-103 -383h-70l102 381h-139v63h210z" />
    <glyph glyph-name="uni2078" unicode="&#x2078;" horiz-adv-x="280" 
d="M249 458c0 -71 -39 -112 -109 -112s-109 41 -109 112v34c0 43 13 76 43 93c-29 16 -43 46 -43 89v14c0 71 39 112 109 112s109 -41 109 -112v-14c0 -43 -14 -73 -43 -89c30 -17 43 -50 43 -93v-34zM101 661c0 -35 16 -47 39 -47c22 0 39 12 39 47v25c0 40 -17 51 -39 51
s-39 -11 -39 -51v-25zM101 459c0 -39 17 -50 39 -50s39 11 39 50v42c0 35 -14 50 -39 50s-39 -15 -39 -50v-42z" />
    <glyph glyph-name="uni2079" unicode="&#x2079;" horiz-adv-x="280" 
d="M244 461c0 -74 -34 -115 -107 -115c-68 0 -104 41 -104 112v11h66v-16c0 -32 14 -44 36 -44c25 0 39 12 39 55v81c-12 -25 -33 -39 -65 -39c-51 0 -77 36 -77 101v81c0 71 37 112 106 112s106 -41 106 -112v-227zM138 569c22 0 36 12 36 44v80c0 32 -14 43 -36 43
s-36 -11 -36 -43v-80c0 -32 14 -44 36 -44z" />
    <glyph glyph-name="fraction" unicode="&#x2044;" horiz-adv-x="67" 
d="M139 700h65l-276 -700h-65z" />
    <glyph glyph-name="onehalf" unicode="&#xbd;" horiz-adv-x="627" 
d="M65 644c54 0 66 26 78 56h46v-444h-70v339h-54v49zM406 700h65l-276 -700h-65zM527 337c0 39 -14 50 -36 50s-36 -12 -36 -44v-47h-66v43c0 71 35 111 104 111s104 -40 104 -111c0 -146 -152 -198 -138 -276h132v-63h-202v54c0 130 138 154 138 283z" />
    <glyph glyph-name="uni2153" unicode="&#x2153;" horiz-adv-x="600" 
 />
    <glyph glyph-name="uni2154" unicode="&#x2154;" horiz-adv-x="600" 
 />
    <glyph glyph-name="onequarter" unicode="&#xbc;" horiz-adv-x="627" 
d="M65 644c54 0 66 26 78 56h46v-444h-70v339h-54v49zM436 700h65l-276 -700h-65zM371 144l127 300h76v-300h33v-64h-33v-80h-69v80h-134v64zM505 144v164l-71 -164h71z" />
    <glyph glyph-name="threequarters" unicode="&#xbe;" horiz-adv-x="627" 
d="M174 399c0 42 -14 56 -45 56h-24v63h27c26 0 42 13 42 48v25c0 40 -14 51 -36 51s-36 -13 -36 -44v-28h-66v23c0 72 35 112 104 112s104 -40 104 -112v-11c0 -48 -15 -77 -49 -91c35 -15 49 -48 49 -93v-35c0 -72 -35 -112 -104 -112s-104 40 -104 112v36h66v-41
c0 -31 14 -44 36 -44s36 11 36 51v34zM446 700h65l-276 -700h-65zM371 144l127 300h76v-300h33v-64h-33v-80h-69v80h-134v64zM505 144v164l-71 -164h71z" />
    <glyph glyph-name="oneeighth" unicode="&#x215b;" horiz-adv-x="627" 
d="M65 644c54 0 66 26 78 56h46v-444h-70v339h-54v49zM406 700h65l-276 -700h-65zM596 107c0 -71 -39 -112 -109 -112s-109 41 -109 112v34c0 43 13 76 43 93c-29 16 -43 46 -43 89v14c0 71 39 112 109 112s109 -41 109 -112v-14c0 -43 -14 -73 -43 -89
c30 -17 43 -50 43 -93v-34zM448 310c0 -35 16 -47 39 -47c22 0 39 12 39 47v25c0 40 -17 51 -39 51s-39 -11 -39 -51v-25zM448 108c0 -39 17 -50 39 -50s39 11 39 50v42c0 35 -14 50 -39 50s-39 -15 -39 -50v-42z" />
    <glyph glyph-name="threeeighths" unicode="&#x215c;" horiz-adv-x="627" 
d="M174 399c0 42 -14 56 -45 56h-24v63h27c26 0 42 13 42 48v25c0 40 -14 51 -36 51s-36 -13 -36 -44v-28h-66v23c0 72 35 112 104 112s104 -40 104 -112v-11c0 -48 -15 -77 -49 -91c35 -15 49 -48 49 -93v-35c0 -72 -35 -112 -104 -112s-104 40 -104 112v36h66v-41
c0 -31 14 -44 36 -44s36 11 36 51v34zM419 700h65l-276 -700h-65zM596 107c0 -71 -39 -112 -109 -112s-109 41 -109 112v34c0 43 13 76 43 93c-29 16 -43 46 -43 89v14c0 71 39 112 109 112s109 -41 109 -112v-14c0 -43 -14 -73 -43 -89c30 -17 43 -50 43 -93v-34zM448 310
c0 -35 16 -47 39 -47c22 0 39 12 39 47v25c0 40 -17 51 -39 51s-39 -11 -39 -51v-25zM448 108c0 -39 17 -50 39 -50s39 11 39 50v42c0 35 -14 50 -39 50s-39 -15 -39 -50v-42z" />
    <glyph glyph-name="fiveeighths" unicode="&#x215d;" horiz-adv-x="627" 
d="M419 700h65l-276 -700h-65zM103 398v-41c0 -32 14 -43 36 -43s36 11 36 43v97c0 32 -14 44 -36 44s-36 -12 -36 -44v-13h-66l13 258h184v-64h-122l-5 -106c12 21 33 33 61 33c51 0 77 -37 77 -102v-99c0 -71 -35 -112 -104 -112s-104 41 -104 112v37h66zM596 107
c0 -71 -39 -112 -109 -112s-109 41 -109 112v34c0 43 13 76 43 93c-29 16 -43 46 -43 89v14c0 71 39 112 109 112s109 -41 109 -112v-14c0 -43 -14 -73 -43 -89c30 -17 43 -50 43 -93v-34zM448 310c0 -35 16 -47 39 -47c22 0 39 12 39 47v25c0 40 -17 51 -39 51
s-39 -11 -39 -51v-25zM448 108c0 -39 17 -50 39 -50s39 11 39 50v42c0 35 -14 50 -39 50s-39 -15 -39 -50v-42z" />
    <glyph glyph-name="seveneighths" unicode="&#x215e;" horiz-adv-x="627" 
d="M245 700v-61l-103 -383h-70l102 381h-139v63h210zM389 700h65l-276 -700h-65zM596 107c0 -71 -39 -112 -109 -112s-109 41 -109 112v34c0 43 13 76 43 93c-29 16 -43 46 -43 89v14c0 71 39 112 109 112s109 -41 109 -112v-14c0 -43 -14 -73 -43 -89c30 -17 43 -50 43 -93
v-34zM448 310c0 -35 16 -47 39 -47c22 0 39 12 39 47v25c0 40 -17 51 -39 51s-39 -11 -39 -51v-25zM448 108c0 -39 17 -50 39 -50s39 11 39 50v42c0 35 -14 50 -39 50s-39 -15 -39 -50v-42z" />
    <glyph glyph-name="period" unicode="." horiz-adv-x="186" 
d="M146 106v-106h-106v106h106z" />
    <glyph glyph-name="comma" unicode="," horiz-adv-x="186" 
d="M40 0v106h106v-95l-48 -111h-45l29 100h-42z" />
    <glyph glyph-name="colon" unicode=":" horiz-adv-x="186" 
d="M146 487v-106h-106v106h106zM146 106v-106h-106v106h106z" />
    <glyph glyph-name="semicolon" unicode=";" horiz-adv-x="186" 
d="M146 487v-106h-106v106h106zM40 0v106h106v-95l-48 -111h-45l29 100h-42z" />
    <glyph glyph-name="ellipsis" unicode="&#x2026;" horiz-adv-x="478" 
d="M146 106v-106h-106v106h106zM292 106v-106h-106v106h106zM438 106v-106h-106v106h106z" />
    <glyph glyph-name="exclam" unicode="!" horiz-adv-x="190" 
d="M54 155l-14 253v292h110v-292l-14 -253h-82zM148 106v-106h-106v106h106z" />
    <glyph glyph-name="exclamdown" unicode="&#xa1;" horiz-adv-x="190" 
d="M42 594v106h106v-106h-106zM136 545l14 -253v-292h-110v292l14 253h82z" />
    <glyph glyph-name="question" unicode="?" horiz-adv-x="360" 
d="M120 155c-4 12 -6 25 -6 43c0 153 120 167 120 341c0 50 -20 69 -55 69s-55 -19 -55 -69v-76h-104v69c0 112 55 176 162 176s162 -64 162 -176c0 -182 -130 -210 -130 -338c0 -13 1 -26 4 -39h-98zM221 106v-106h-106v106h106z" />
    <glyph glyph-name="questiondown" unicode="&#xbf;" horiz-adv-x="360" 
d="M139 594v106h106v-106h-106zM240 545c4 -12 6 -25 6 -43c0 -153 -120 -167 -120 -341c0 -50 20 -69 55 -69s55 19 55 69v76h104v-69c0 -112 -55 -176 -162 -176s-162 64 -162 176c0 182 130 210 130 338c0 13 -1 26 -4 39h98z" />
    <glyph glyph-name="periodcentered" unicode="&#xb7;" horiz-adv-x="186" 
d="M146 403v-106h-106v106h106z" />
    <glyph glyph-name="bullet" unicode="&#x2022;" 
d="M59 350c0 77 62 139 139 139s139 -62 139 -139s-62 -139 -139 -139s-139 62 -139 139z" />
    <glyph glyph-name="asterisk" unicode="*" 
d="M179 535l-26 165h90l-26 -165l149 75l28 -85l-164 -28l117 -117l-72 -53l-77 148l-77 -148l-72 53l117 117l-164 28l28 85z" />
    <glyph glyph-name="numbersign" unicode="#" horiz-adv-x="410" 
d="M219 200h-65l-21 -200h-90l21 200h-49l8 78h49l19 183h-50l8 78h50l17 161h90l-17 -161h65l17 161h90l-17 -161h51l-8 -78h-51l-19 -183h51l-8 -78h-51l-21 -200h-90zM162 278h65l19 183h-65z" />
    <glyph glyph-name="slash" unicode="/" horiz-adv-x="381" 
d="M281 700h95l-276 -700h-95z" />
    <glyph glyph-name="backslash" unicode="\" horiz-adv-x="381" 
d="M376 0h-95l-276 700h95z" />
    <glyph glyph-name="parenleft" unicode="(" horiz-adv-x="251" 
d="M235 700v-90h-27c-35 0 -51 -13 -51 -63v-394c0 -50 16 -63 51 -63h27v-90h-34c-110 0 -154 41 -154 153v394c0 112 44 153 154 153h34z" />
    <glyph glyph-name="parenright" unicode=")" horiz-adv-x="251" 
d="M50 700c110 0 154 -41 154 -153v-394c0 -112 -44 -153 -154 -153h-34v90h27c35 0 51 13 51 63v394c0 50 -16 63 -51 63h-27v90h34z" />
    <glyph glyph-name="braceleft" unicode="{" horiz-adv-x="257" 
d="M102 350c51 -13 63 -52 65 -89l5 -100c3 -55 18 -71 53 -71h16v-90h-56c-62 0 -106 35 -111 111l-8 134c-3 46 -13 60 -55 60v90c42 0 52 14 55 60l8 134c5 76 49 111 111 111h56v-90h-16c-35 0 -50 -16 -53 -71l-5 -100c-2 -37 -14 -76 -65 -89z" />
    <glyph glyph-name="braceright" unicode="}" horiz-adv-x="257" 
d="M155 350c-51 13 -63 52 -65 89l-5 100c-3 55 -18 71 -53 71h-16v90h56c62 0 106 -35 111 -111l8 -134c3 -46 13 -60 55 -60v-90c-42 0 -52 -14 -55 -60l-8 -134c-5 -76 -49 -111 -111 -111h-56v90h16c35 0 50 16 53 71l5 100c2 37 14 76 65 89z" />
    <glyph glyph-name="bracketleft" unicode="[" horiz-adv-x="251" 
d="M47 700h182v-90h-72v-520h72v-90h-182v700z" />
    <glyph glyph-name="bracketright" unicode="]" horiz-adv-x="251" 
d="M204 0h-182v90h72v520h-72v90h182v-700z" />
    <glyph glyph-name="hyphen" unicode="-" horiz-adv-x="270" 
d="M35 400h200v-100h-200v100z" />
    <glyph glyph-name="uni00AD" unicode="&#xad;" horiz-adv-x="270" 
d="M35 400h200v-100h-200v100z" />
    <glyph glyph-name="endash" unicode="&#x2013;" horiz-adv-x="500" 
d="M0 395h500v-90h-500v90z" />
    <glyph glyph-name="emdash" unicode="&#x2014;" horiz-adv-x="1000" 
d="M0 395h1000v-90h-1000v90z" />
    <glyph glyph-name="figuredash" unicode="&#x2012;" 
d="M0 395h396v-90h-396v90z" />
    <glyph glyph-name="underscore" unicode="_" horiz-adv-x="500" 
d="M0 -10h500v-80h-500v80z" />
    <glyph glyph-name="quotesinglbase" unicode="&#x201a;" horiz-adv-x="186" 
d="M40 0v106h106v-95l-48 -111h-45l29 100h-42z" />
    <glyph glyph-name="quotedblbase" unicode="&#x201e;" horiz-adv-x="332" 
d="M40 0v106h106v-95l-48 -111h-45l29 100h-42zM186 0v106h106v-95l-48 -111h-45l29 100h-42z" />
    <glyph glyph-name="quotedblleft" unicode="&#x201c;" horiz-adv-x="332" 
d="M146 600v-106h-106v95l48 111h45l-29 -100h42zM292 600v-106h-106v95l48 111h45l-29 -100h42z" />
    <glyph glyph-name="quotedblright" unicode="&#x201d;" horiz-adv-x="332" 
d="M40 594v106h106v-95l-48 -111h-45l29 100h-42zM186 594v106h106v-95l-48 -111h-45l29 100h-42z" />
    <glyph glyph-name="quoteleft" unicode="&#x2018;" horiz-adv-x="186" 
d="M146 600v-106h-106v95l48 111h45l-29 -100h42z" />
    <glyph glyph-name="quoteright" unicode="&#x2019;" horiz-adv-x="186" 
d="M40 594v106h106v-95l-48 -111h-45l29 100h-42z" />
    <glyph glyph-name="guillemotleft" unicode="&#xab;" horiz-adv-x="355" 
d="M177 608l-61 -257l61 -273h-99l-62 273l62 257h99zM339 608l-61 -257l61 -273h-99l-62 273l62 257h99z" />
    <glyph glyph-name="guillemotright" unicode="&#xbb;" horiz-adv-x="355" 
d="M115 608l62 -257l-62 -273h-99l61 273l-61 257h99zM277 608l62 -257l-62 -273h-99l61 273l-61 257h99z" />
    <glyph glyph-name="guilsinglleft" unicode="&#x2039;" horiz-adv-x="196" 
d="M180 617l-59 -266l59 -282h-104l-60 282l60 266h104z" />
    <glyph glyph-name="guilsinglright" unicode="&#x203a;" horiz-adv-x="196" 
d="M120 617l60 -266l-60 -282h-104l59 282l-59 266h104z" />
    <glyph glyph-name="quotedbl" unicode="&#x22;" horiz-adv-x="325" 
d="M40 700h106l-16 -206h-75zM179 700h106l-16 -206h-75z" />
    <glyph glyph-name="quotesingle" unicode="'" horiz-adv-x="180" 
d="M37 700h106l-16 -206h-75z" />
    <glyph glyph-name="space" unicode=" " horiz-adv-x="155" 
 />
    <glyph glyph-name="uni00A0" unicode="&#xa0;" horiz-adv-x="155" 
 />
    <glyph glyph-name="CR" horiz-adv-x="155" 
 />
    <glyph glyph-name="Euro" unicode="&#x20ac;" 
d="M19 435h28v97c0 112 53 176 161 176s161 -64 161 -176v-51h-104v58c0 50 -19 69 -54 69s-54 -19 -54 -69v-104h154v-55h-154v-55h154v-55h-154v-109c0 -50 19 -68 54 -68s54 18 54 68v63h104v-56c0 -112 -53 -176 -161 -176s-161 64 -161 176v102h-28v55h28v55h-28v55z
" />
    <glyph glyph-name="cent" unicode="&#xa2;" 
d="M153 37c-77 16 -117 76 -117 171v284c0 94 40 154 117 171v52h90v-51c80 -16 121 -76 121 -172v-48h-104v55c0 50 -22 69 -57 69s-57 -19 -57 -69v-298c0 -50 22 -68 57 -68s57 18 57 68v80h104v-73c0 -96 -41 -157 -121 -172v-51h-90v52z" />
    <glyph glyph-name="currency" unicode="&#xa4;" 
d="M87 282c-12 20 -18 43 -18 68c0 24 6 48 18 67l-55 56l43 43l56 -56c19 12 42 19 67 19c24 0 47 -7 67 -19l56 56l43 -43l-56 -56c12 -20 19 -43 19 -67c0 -25 -7 -48 -19 -67l56 -56l-43 -43l-56 55c-19 -12 -43 -18 -67 -18c-25 0 -48 6 -68 18l-55 -55l-43 43z
M134 350c0 -35 29 -64 64 -64s64 29 64 64s-29 64 -64 64s-64 -29 -64 -64z" />
    <glyph glyph-name="dollar" unicode="$" 
d="M37 522c0 94 39 154 116 171v52h90v-52c78 -16 118 -76 118 -171v-22h-104v29c0 50 -20 69 -55 69s-55 -19 -55 -69c0 -144 215 -151 215 -351c0 -95 -41 -156 -119 -172v-51h-90v51c-79 16 -119 77 -119 172v48h104v-55c0 -50 22 -68 57 -68s57 18 57 68
c0 144 -215 151 -215 351z" />
    <glyph glyph-name="sterling" unicode="&#xa3;" 
d="M44 295h67c-24 69 -71 115 -71 237c0 112 55 176 162 176s162 -64 162 -176v-69h-104v76c0 50 -20 69 -55 69s-55 -19 -55 -69c0 -125 48 -168 67 -244h121v-85h-114c-5 -51 -26 -86 -56 -110h189v-100h-327v96c52 0 93 42 95 114h-81v85z" />
    <glyph glyph-name="uni20B9" unicode="&#x20b9;" 
d="M202 549c0 50 -29 66 -84 66h-92v85h344v-85h-84c13 -19 21 -41 25 -66h59v-85h-59c-8 -95 -78 -151 -163 -151h-5l233 -313h-118l-232 313v85h92c55 0 84 16 84 66h-176v85h176z" />
    <glyph glyph-name="yen" unicode="&#xa5;" 
d="M389 700l-128 -429h83v-55h-91v-45h91v-55h-91v-116h-110v116h-91v55h91v45h-91v55h82l-127 429h115l81 -309l81 309h105z" />
    <glyph glyph-name="plus" unicode="+" 
d="M237 389h134v-78h-134v-137h-78v137h-134v78h134v135h78v-135z" />
    <glyph glyph-name="minus" unicode="&#x2212;" 
d="M371 389v-78h-346v78h346z" />
    <glyph glyph-name="multiply" unicode="&#xd7;" 
d="M198 403l106 106l53 -53l-106 -106l106 -106l-53 -53l-106 106l-107 -106l-53 53l106 106l-105 105l53 53z" />
    <glyph glyph-name="divide" unicode="&#xf7;" 
d="M251 555v-106h-106v106h106zM371 389v-78h-346v78h346zM251 250v-106h-106v106h106z" />
    <glyph glyph-name="equal" unicode="=" 
d="M361 470v-78h-326v78h326zM361 308v-78h-326v78h326z" />
    <glyph glyph-name="greater" unicode="&#x3e;" 
d="M40 191v79l224 80l-224 80v79l326 -120v-78z" />
    <glyph glyph-name="less" unicode="&#x3c;" 
d="M30 311v78l326 120v-79l-224 -80l224 -80v-79z" />
    <glyph glyph-name="plusminus" unicode="&#xb1;" 
d="M361 252v-78h-326v78h124v80h-124v78h124v114h78v-114h124v-78h-124v-80h124z" />
    <glyph glyph-name="approxequal" unicode="&#x2248;" 
d="M8 415c48 71 81 90 119 90c54 0 101 -61 143 -61c23 0 35 14 66 57l52 -54c-48 -71 -81 -86 -119 -86c-54 0 -101 61 -143 61c-23 0 -36 -14 -66 -57zM8 249c48 71 81 90 119 90c54 0 101 -61 143 -61c23 0 35 14 66 57l52 -54c-48 -71 -81 -86 -119 -86
c-54 0 -101 61 -143 61c-23 0 -36 -14 -66 -57z" />
    <glyph glyph-name="asciitilde" unicode="~" 
d="M8 332c48 71 81 90 119 90c54 0 101 -61 143 -61c23 0 35 14 66 57l52 -54c-48 -71 -81 -86 -119 -86c-54 0 -101 61 -143 61c-23 0 -36 -14 -66 -57z" />
    <glyph glyph-name="logicalnot" unicode="&#xac;" 
d="M371 389v-215h-78v137h-268v78h346z" />
    <glyph glyph-name="asciicircum" unicode="^" 
d="M159 700h78l139 -310h-88l-90 210l-90 -210h-88z" />
    <glyph glyph-name="infinity" unicode="&#x221e;" horiz-adv-x="600" 
d="M180 216c-89 0 -142 46 -142 134s53 134 142 134h10c54 0 95 -13 116 -51c19 36 58 51 112 51h12c89 0 140 -46 140 -134s-51 -134 -140 -134h-12c-54 0 -93 16 -112 51c-21 -38 -62 -51 -116 -51h-10zM181 409c-54 0 -66 -28 -66 -59s12 -57 66 -58h20c48 0 68 24 68 58
s-20 59 -68 59h-20zM406 409c-54 0 -66 -28 -66 -59s12 -57 66 -58h20c48 0 68 24 68 58s-20 59 -68 59h-20z" />
    <glyph glyph-name="uni00B5" unicode="&#xb5;" 
d="M141 161c0 -50 22 -69 57 -69s57 19 57 69v339h110v-500h-100v52c-20 -39 -55 -60 -100 -60c-9 0 -17 1 -24 2v-87h-110v593h110v-339z" />
    <glyph glyph-name="percent" unicode="%" horiz-adv-x="627" 
d="M34 593c0 72 37 112 106 112s106 -40 106 -112v-230c0 -72 -37 -112 -106 -112s-106 40 -106 112v230zM416 700h65l-276 -700h-65zM104 358c0 -31 13 -44 36 -44c22 0 36 13 36 44v240c0 31 -14 44 -36 44c-23 0 -36 -13 -36 -44v-240zM381 337c0 72 37 112 106 112
s106 -40 106 -112v-230c0 -72 -37 -112 -106 -112s-106 40 -106 112v230zM451 102c0 -31 13 -44 36 -44c22 0 36 13 36 44v240c0 31 -14 44 -36 44c-23 0 -36 -13 -36 -44v-240z" />
    <glyph glyph-name="perthousand" unicode="&#x2030;" horiz-adv-x="883" 
d="M34 593c0 72 37 112 106 112s106 -40 106 -112v-230c0 -72 -37 -112 -106 -112s-106 40 -106 112v230zM416 700h65l-276 -700h-65zM104 358c0 -31 13 -44 36 -44c22 0 36 13 36 44v240c0 31 -14 44 -36 44c-23 0 -36 -13 -36 -44v-240zM381 337c0 72 37 112 106 112
s106 -40 106 -112v-230c0 -72 -37 -112 -106 -112s-106 40 -106 112v230zM637 337c0 72 37 112 106 112s106 -40 106 -112v-230c0 -72 -37 -112 -106 -112s-106 40 -106 112v230zM451 102c0 -31 13 -44 36 -44c22 0 36 13 36 44v240c0 31 -14 44 -36 44
c-23 0 -36 -13 -36 -44v-240zM707 102c0 -31 13 -44 36 -44c22 0 36 13 36 44v240c0 31 -14 44 -36 44c-23 0 -36 -13 -36 -44v-240z" />
    <glyph glyph-name="at" unicode="@" horiz-adv-x="689" 
d="M476 127c-51 0 -84 19 -88 66c-20 -41 -53 -62 -97 -60c-70 2 -100 57 -90 154l11 101c10 98 52 151 122 148c42 -1 69 -23 82 -62l6 58h96l-30 -289c-2 -17 4 -25 20 -25c56 0 80 124 80 226c0 125 -60 211 -199 211c-178 0 -271 -142 -271 -370
c0 -161 74 -261 233 -261c74 0 137 14 207 68l-8 -96c-66 -44 -131 -56 -205 -56c-225 0 -321 143 -321 350c0 247 122 450 369 450c211 0 278 -132 278 -294c0 -246 -118 -319 -195 -319zM298 292c-5 -46 12 -65 43 -66c30 -1 51 17 56 63l10 95c4 39 -16 56 -43 56
c-31 1 -52 -16 -57 -63z" />
    <glyph glyph-name="ampersand" unicode="&#x26;" horiz-adv-x="414" 
d="M41 223c0 71 22 123 76 147c-52 22 -76 69 -76 144v13c0 112 54 173 164 173h126v-100h-124c-35 0 -56 -18 -56 -68v-43c0 -56 25 -74 66 -74h48v78h110v-78h29v-100h-29v-230c0 -34 1 -59 12 -85h-112c-5 14 -8 24 -10 55c-19 -41 -53 -63 -102 -63
c-81 0 -122 57 -122 160v71zM151 161c0 -50 22 -69 57 -69c33 0 55 17 57 61v162h-42c-50 0 -72 -24 -72 -89v-65z" />
    <glyph glyph-name="paragraph" unicode="&#xb6;" 
d="M356 -65h-80v685h-54v-685h-80l2 330c-84 0 -130 71 -130 171v91c0 112 54 173 164 173h178v-765z" />
    <glyph glyph-name="section" unicode="&#xa7;" 
d="M35 314c0 51 23 96 69 122c-38 25 -69 61 -69 130c0 80 55 142 162 142s162 -56 162 -136v-36h-104v21c0 36 -20 60 -55 60s-55 -20 -55 -56c0 -83 215 -57 215 -240c0 -51 -24 -97 -70 -123c39 -24 70 -61 70 -129c0 -80 -55 -142 -162 -142s-162 56 -162 136v50h104
v-35c0 -36 20 -60 55 -60s55 20 55 56c0 83 -215 57 -215 240zM140 318c0 -40 27 -60 61 -77c33 5 54 39 54 76c0 39 -27 59 -62 76c-33 -5 -53 -38 -53 -75z" />
    <glyph glyph-name="copyright" unicode="&#xa9;" horiz-adv-x="736" 
d="M20 350c0 208 150 358 348 358s348 -150 348 -358s-150 -358 -348 -358s-348 150 -348 358zM92 350c0 -167 118 -288 276 -288s276 121 276 288s-118 288 -276 288s-276 -121 -276 -288zM477 308v-56c0 -78 -38 -122 -113 -122s-113 44 -113 122v194c0 80 38 124 113 124
s113 -44 113 -124v-36h-72v42c0 35 -15 48 -39 48s-39 -13 -39 -48v-204c0 -35 15 -47 39 -47s39 12 39 47v60h72z" />
    <glyph glyph-name="registered" unicode="&#xae;" horiz-adv-x="736" 
d="M20 350c0 208 150 358 348 358s348 -150 348 -358s-150 -358 -348 -358s-348 150 -348 358zM92 350c0 -167 118 -288 276 -288s276 121 276 288s-118 288 -276 288s-276 -121 -276 -288zM418 136c-5 13 -7 20 -7 60v46c0 46 -16 62 -51 62h-26v-168h-76v428h116
c78 0 113 -37 113 -112v-9c0 -51 -16 -83 -52 -99c39 -16 52 -52 52 -103v-46c0 -23 1 -41 9 -59h-78zM334 494v-120h31c28 0 46 12 46 51v18c0 35 -12 51 -41 51h-36z" />
    <glyph glyph-name="uni2117" unicode="&#x2117;" horiz-adv-x="736" 
d="M20 350c0 208 150 358 348 358s348 -150 348 -358s-150 -358 -348 -358s-348 150 -348 358zM92 350c0 -167 118 -288 276 -288s276 121 276 288s-118 288 -276 288s-276 -121 -276 -288zM275 555h116c78 0 113 -37 113 -112v-56c0 -75 -35 -112 -113 -112h-40v-148h-76
v428zM428 434c0 35 -12 51 -41 51h-36v-140h36c29 0 41 16 41 51v38z" />
    <glyph glyph-name="trademark" unicode="&#x2122;" horiz-adv-x="586" 
d="M10 700h216v-64h-73v-292h-70v292h-73v64zM417 450l47 250h97v-356h-66v253l-47 -253h-66l-53 251v-251h-61v356h97z" />
    <glyph glyph-name="degree" unicode="&#xb0;" horiz-adv-x="228" 
d="M15 609c0 55 44 99 99 99s99 -44 99 -99s-44 -99 -99 -99s-99 44 -99 99zM65 609c0 -27 22 -49 49 -49s49 22 49 49s-22 49 -49 49s-49 -22 -49 -49z" />
    <glyph glyph-name="bar" unicode="|" horiz-adv-x="500" 
d="M210 765h90v-830h-90v830z" />
    <glyph glyph-name="brokenbar" unicode="&#xa6;" horiz-adv-x="500" 
d="M210 765h90v-355h-90v355zM210 290h90v-355h-90v355z" />
    <glyph glyph-name="dagger" unicode="&#x2020;" 
d="M25 525h128v175h90v-175h128v-85h-128v-505h-90v505h-128v85z" />
    <glyph glyph-name="daggerdbl" unicode="&#x2021;" 
d="M25 525h128v175h90v-175h128v-85h-128v-245h128v-85h-128v-175h-90v175h-128v85h128v245h-128v85z" />
    <glyph glyph-name="uni02BC" unicode="&#x2bc;" horiz-adv-x="186" 
d="M40 594v106h106v-95l-48 -111h-45l29 100h-42z" />
    <glyph glyph-name="uniF6C3" unicode="&#xf6c3;" horiz-adv-x="0" 
 />
    <glyph glyph-name="acute" unicode="&#xb4;" horiz-adv-x="250" 
d="M203 848l-102 -111h-74l68 111h108z" />
    <glyph glyph-name="breve" unicode="&#x2d8;" horiz-adv-x="250" 
d="M172 848h65c0 -70 -38 -115 -113 -115s-110 45 -111 115h65c3 -38 18 -47 46 -47c29 0 45 9 48 47z" />
    <glyph glyph-name="caron" unicode="&#x2c7;" horiz-adv-x="250" 
d="M81 848l44 -56l45 56h94l-89 -111h-99l-89 111h94z" />
    <glyph glyph-name="cedilla" unicode="&#xb8;" horiz-adv-x="250" 
d="M26 -79h74v-8c0 -15 11 -20 22 -20c17 0 25 7 25 24c0 19 -12 26 -36 26h-10v71h48v-53c49 0 74 -12 74 -47c0 -54 -42 -61 -101 -61c-55 0 -96 12 -96 58v10z" />
    <glyph glyph-name="circumflex" unicode="&#x2c6;" horiz-adv-x="250" 
d="M-13 737l89 111h99l89 -111h-94l-45 55l-44 -55h-94z" />
    <glyph glyph-name="dieresis" unicode="&#xa8;" horiz-adv-x="250" 
d="M97 833v-96h-96v96h96zM249 833v-96h-96v96h96z" />
    <glyph glyph-name="dotaccent" unicode="&#x2d9;" horiz-adv-x="250" 
d="M173 833v-96h-96v96h96z" />
    <glyph glyph-name="grave" unicode="`" horiz-adv-x="250" 
d="M157 848l68 -111h-79l-102 111h113z" />
    <glyph glyph-name="hungarumlaut" unicode="&#x2dd;" horiz-adv-x="250" 
d="M125 848l-83 -111h-67l50 111h100zM256 848l-84 -111h-66l49 111h101z" />
    <glyph glyph-name="macron" unicode="&#xaf;" horiz-adv-x="250" 
d="M240 819v-78h-230v78h230z" />
    <glyph glyph-name="ogonek" unicode="&#x2db;" horiz-adv-x="250" 
d="M123 4h43c-29 -22 -35 -47 -35 -62c0 -19 17 -28 35 -28c20 0 25 3 36 6v-56c-23 -9 -40 -11 -68 -11c-53 0 -87 21 -87 62c0 34 25 65 76 89z" />
    <glyph glyph-name="ring" unicode="&#x2da;" horiz-adv-x="250" 
d="M45 814c0 45 35 80 80 80s80 -35 80 -80s-35 -80 -80 -80s-80 35 -80 80zM95 814c0 -17 13 -30 30 -30s30 13 30 30s-13 30 -30 30s-30 -13 -30 -30z" />
    <glyph glyph-name="tilde" unicode="&#x2dc;" horiz-adv-x="250" 
d="M165 813c18 0 31 4 43 29l53 -37c-19 -51 -50 -68 -85 -68c-42 0 -60 25 -90 25c-18 0 -31 -4 -43 -29l-53 37c19 51 50 68 85 68c42 0 60 -25 90 -25z" />
    <glyph glyph-name="NULL" horiz-adv-x="0" 
 />
    <glyph glyph-name="Edotaaccent" horiz-adv-x="600" 
 />
    <glyph glyph-name="edotaaccent" horiz-adv-x="600" 
 />
    <glyph glyph-name="lcute" horiz-adv-x="600" 
 />
    </font>
</defs>
</svg>
